<svg width="367" height="335" viewBox="0 0 367 335" fill="none" xmlns="http://www.w3.org/2000/svg">
<path d="M125.831 113.682C127.283 123.513 125.786 133.554 121.529 142.534C117.272 151.513 110.447 159.028 101.918 164.127C93.3879 169.227 83.5373 171.681 73.6124 171.179C63.6874 170.678 54.1343 167.243 46.1621 161.311C38.1899 155.378 32.157 147.213 28.8268 137.85C25.4967 128.487 25.0191 118.346 27.4544 108.712C29.8898 99.0772 35.1286 90.3817 42.5079 83.7257C49.8871 77.0697 59.0751 72.7525 68.909 71.3204C82.0749 69.3898 95.4684 72.7683 106.143 80.7126C116.818 88.6569 123.9 100.516 125.831 113.682Z" fill="#F5F5F5"/>
<path d="M114.01 115.406C115.114 122.898 113.972 130.548 110.726 137.39C107.481 144.232 102.279 149.957 95.779 153.841C89.2788 157.725 81.7723 159.593 74.2097 159.21C66.6472 158.826 59.3684 156.207 53.2947 151.685C47.2209 147.163 42.6252 140.941 40.0892 133.806C37.5531 126.671 37.1908 118.944 39.048 111.603C40.9051 104.262 44.8984 97.6368 50.5223 92.5661C56.1462 87.4955 63.1479 84.2072 70.6414 83.1174C75.6092 82.3895 80.6717 82.6473 85.5399 83.8761C90.408 85.1048 94.9864 87.2806 99.0136 90.2789C103.041 93.2773 106.438 97.0396 109.011 101.351C111.584 105.662 113.283 110.438 114.01 115.406Z" fill="#EBEBEB"/>
<path d="M113.82 114.218C113.597 114.218 113.193 112.618 112.17 109.813C110.729 105.863 108.686 102.16 106.115 98.8329C104.34 96.5691 102.323 94.5056 100.101 92.6787C97.5457 90.6053 94.7342 88.8696 91.7356 87.5144C90.1205 86.7745 88.4522 86.1568 86.7446 85.6665C84.9712 85.1412 83.1588 84.7578 81.3246 84.5198C79.4308 84.2571 77.5192 84.144 75.6077 84.1816C73.6358 84.2292 71.6701 84.4195 69.7257 84.7508C67.7874 85.1103 65.877 85.6065 64.0087 86.2358C62.1959 86.8622 60.4336 87.6261 58.7372 88.5209C57.0991 89.3835 55.5298 90.3709 54.0432 91.4743C52.6103 92.5196 51.259 93.6724 50.0009 94.9226C47.6527 97.218 45.6119 99.8079 43.9292 102.628C42.4691 105.106 41.2851 107.737 40.3983 110.473C39.13 114.475 38.4872 118.649 38.4927 122.848C38.4927 125.842 38.6824 127.517 38.4927 127.558C38.3029 127.599 37.7502 125.974 37.3955 122.905C36.9334 118.535 37.2915 114.118 38.4514 109.879C39.2477 106.933 40.3914 104.091 41.8585 101.415C43.5583 98.3321 45.6673 95.4932 48.1282 92.9757C49.4526 91.6043 50.8843 90.3409 52.4098 89.1974C53.9881 87.9825 55.6628 86.8982 57.4173 85.9553C59.2386 84.983 61.1336 84.1554 63.0847 83.4804C65.0941 82.7748 67.1542 82.2233 69.2472 81.8305C71.3439 81.4717 73.4644 81.2704 75.5912 81.2282C77.6555 81.1996 79.7189 81.3348 81.7619 81.6325C83.735 81.9184 85.6825 82.3598 87.5861 82.9524C89.4118 83.5006 91.1911 84.193 92.9071 85.0231C96.0858 86.542 99.0441 88.4846 101.701 90.7978C104 92.8055 106.052 95.0791 107.814 97.5707C110.362 101.153 112.219 105.179 113.292 109.442C114.01 112.478 114.01 114.177 113.82 114.218Z" fill="#E0E0E0"/>
<path d="M83.6923 142.877L84.7483 149.477L78.8745 150.418L77.8433 144.016C71.9696 144.593 66.0959 143.661 62.4578 141.657L64.512 133.976C68.2651 135.786 72.4232 136.594 76.5811 136.319L75.0055 126.502C68.2325 125.966 60.5934 124.951 59.2487 116.545C58.2505 110.316 61.9216 104.245 71.0374 101.695L69.9897 95.17L75.8717 94.2296L76.8946 100.631C81.1352 100.189 85.4201 100.755 89.401 102.281L87.6191 109.986C84.6012 108.81 81.3783 108.249 78.1403 108.336L79.7407 118.327C86.5054 118.813 94.0291 119.836 95.3573 128.127C96.3637 134.281 92.7421 140.287 83.6923 142.877ZM73.6608 117.84L72.3243 109.491C69.3215 110.696 68.3563 112.601 68.6698 114.54C68.9833 116.479 70.9384 117.477 73.6608 117.84ZM86.0352 130.388C85.7052 128.325 83.8243 127.484 81.1514 127.005L82.4549 135.123C85.2927 133.976 86.3404 132.268 86.0352 130.388Z" fill="#E0E0E0"/>
<path d="M308.197 68.532C311.955 74.6991 313.8 81.8425 313.496 89.0581C313.193 96.2737 310.755 103.237 306.492 109.067C302.23 114.896 296.333 119.33 289.549 121.807C282.765 124.284 275.399 124.693 268.383 122.981C261.366 121.269 255.016 117.515 250.134 112.192C245.253 106.87 242.061 100.218 240.961 93.0806C239.862 85.9428 240.905 78.6393 243.958 72.0945C247.011 65.5497 251.938 60.058 258.114 56.3144C262.204 53.8273 266.745 52.1704 271.476 51.4384C276.207 50.7064 281.036 50.9136 285.686 52.0482C290.337 53.1827 294.719 55.2224 298.582 58.0508C302.444 60.8791 305.711 64.4407 308.197 68.532Z" fill="#F5F5F5"/>
<path d="M300.773 73.028C303.639 77.7281 305.046 83.1727 304.816 88.6728C304.586 94.1729 302.729 99.4811 299.48 103.925C296.232 108.37 291.738 111.75 286.567 113.639C281.397 115.528 275.782 115.841 270.434 114.537C265.085 113.233 260.244 110.372 256.523 106.315C252.802 102.258 250.368 97.1887 249.529 91.748C248.691 86.3073 249.485 80.7402 251.812 75.7513C254.139 70.7625 257.894 66.5762 262.602 63.7225C268.898 59.8978 276.456 58.7295 283.613 60.4744C290.771 62.2193 296.943 66.7346 300.773 73.028Z" fill="#EBEBEB"/>
<path d="M300.319 72.2856C300.179 72.3846 299.444 71.4029 297.951 69.8108C295.871 67.5747 293.455 65.6766 290.791 64.1845C288.96 63.1688 287.024 62.3582 285.016 61.7674C282.718 61.1048 280.345 60.7389 277.954 60.6784C276.665 60.6452 275.374 60.7058 274.093 60.8599C272.758 61.0127 271.437 61.2692 270.142 61.6271C268.798 61.987 267.485 62.4532 266.215 63.0213C263.594 64.1948 261.173 65.7702 259.038 67.6906C258.004 68.6207 257.044 69.6303 256.167 70.71C254.496 72.7503 253.136 75.0272 252.133 77.4664C251.211 79.6741 250.582 81.9925 250.26 84.3631C249.986 86.4334 249.939 88.5275 250.12 90.608C250.404 93.6482 251.159 96.626 252.356 99.4351C253.181 101.44 253.808 102.512 253.667 102.603C253.527 102.694 252.719 101.778 251.613 99.8063C250.067 97.012 249.054 93.9544 248.627 90.7895C248.325 88.6023 248.283 86.3869 248.503 84.1898C248.915 80.2575 250.14 76.4537 252.1 73.0199C252.83 71.7608 253.657 70.5609 254.575 69.4313C255.508 68.2484 256.537 67.1447 257.652 66.1314C259.936 64.0382 262.55 62.3377 265.39 61.0992C266.764 60.4922 268.185 59.9984 269.639 59.6225C271.037 59.2508 272.464 58.9915 273.904 58.847C275.273 58.6998 276.653 58.6612 278.028 58.7315C282.816 58.9163 287.474 60.3373 291.549 62.8563C294.269 64.5291 296.653 66.6946 298.578 69.2415C299.923 71.0812 300.451 72.2196 300.319 72.2856Z" fill="#E0E0E0"/>
<path d="M288.283 100.004L290.848 104.129L287.185 106.423L284.711 102.43C280.941 104.476 276.75 105.523 273.739 105.21L272.955 99.4351C275.982 99.5866 278.995 98.9469 281.699 97.5789L277.863 91.4577C273.178 93.0169 267.782 94.5101 264.499 89.2633C262.065 85.3778 262.8 80.2712 268.178 75.9897L265.629 71.9144L269.3 69.621L271.775 73.6221C274.501 72.1263 277.544 71.3033 280.652 71.2214L281.642 76.8806C279.29 76.9588 276.976 77.5028 274.836 78.4811L278.738 84.7178C283.407 83.1174 288.728 81.6819 291.937 86.8462C294.321 90.6575 293.604 95.7063 288.283 100.004ZM274.465 86.1285L271.206 80.923C269.556 82.5729 269.432 84.1238 270.191 85.3365C270.95 86.5492 272.534 86.5904 274.465 86.1285ZM286.303 91.0122C285.478 89.7335 284.001 89.7005 282.079 90.1378L285.247 95.1948C286.831 93.6109 287.037 92.1589 286.303 90.9792V91.0122Z" fill="#E0E0E0"/>
<path d="M259.054 34.7416C255.914 36.733 252.253 37.7478 248.535 37.6576C244.817 37.5673 241.21 36.3761 238.17 34.2347C235.129 32.0933 232.793 29.098 231.455 25.628C230.118 22.1579 229.841 18.3691 230.658 14.7412C231.475 11.1133 233.35 7.80942 236.046 5.24772C238.741 2.68601 242.137 0.981703 245.801 0.350523C249.466 -0.280657 253.236 0.189673 256.633 1.70198C260.031 3.21428 262.903 5.70056 264.887 8.84609C266.204 10.9293 267.099 13.2517 267.519 15.6806C267.939 18.1095 267.876 20.5973 267.334 23.002C266.793 25.4066 265.783 27.6811 264.362 29.6954C262.941 31.7097 261.138 33.4244 259.054 34.7416Z" fill="#F5F5F5"/>
<path d="M256.67 30.9633C254.277 32.4797 251.487 33.2521 248.654 33.1825C245.821 33.113 243.073 32.2047 240.757 30.5726C238.44 28.9405 236.66 26.658 235.642 24.0139C234.623 21.3698 234.412 18.4829 235.034 15.7186C235.657 12.9543 237.086 10.4369 239.139 8.4848C241.193 6.53273 243.78 5.23381 246.573 4.7524C249.365 4.27099 252.237 4.62874 254.826 5.78037C257.415 6.932 259.604 8.82576 261.117 11.222C262.121 12.81 262.804 14.5805 263.124 16.4322C263.444 18.2839 263.397 20.1806 262.984 22.0139C262.571 23.8472 261.801 25.5812 260.717 27.1168C259.634 28.6523 258.259 29.9594 256.67 30.9633Z" fill="#EBEBEB"/>
<path d="M257.041 30.7241C257 30.6498 257.495 30.2621 258.304 29.4784C259.434 28.3865 260.389 27.1259 261.133 25.7413C261.638 24.7899 262.037 23.7856 262.321 22.7467C262.643 21.5607 262.81 20.3377 262.816 19.1086C262.828 18.4437 262.786 17.7788 262.692 17.1205C262.601 16.4341 262.457 15.7557 262.263 15.0911C262.062 14.4045 261.808 13.7343 261.504 13.0864C261.186 12.4186 260.823 11.7735 260.415 11.156C259.999 10.5409 259.538 9.95645 259.038 9.40709C258.549 8.88468 258.023 8.39937 257.462 7.95516C256.918 7.52609 256.342 7.13995 255.738 6.80021C255.163 6.47937 254.565 6.20355 253.948 5.97525C252.799 5.52915 251.599 5.22712 250.376 5.07604C249.307 4.95644 248.227 4.95644 247.158 5.07604C245.594 5.24759 244.066 5.66231 242.629 6.30523C242.106 6.59757 241.553 6.83267 240.979 7.00645C241.373 6.54949 241.86 6.18118 242.407 5.92575C243.829 5.09605 245.392 4.53666 247.018 4.27583C248.148 4.10202 249.294 4.06325 250.433 4.16033C251.743 4.26148 253.034 4.53897 254.269 4.98529C254.941 5.23095 255.592 5.52885 256.216 5.87625C256.87 6.23271 257.493 6.641 258.081 7.0972C258.694 7.56965 259.27 8.08812 259.805 8.64812C260.342 9.23477 260.838 9.85771 261.29 10.5125C261.748 11.1841 262.154 11.8902 262.503 12.6244C262.836 13.327 263.112 14.0553 263.328 14.8023C263.533 15.5179 263.679 16.2491 263.765 16.9885C263.85 17.6973 263.884 18.4114 263.864 19.1251C263.799 21.5941 263.103 24.0053 261.843 26.129C261.005 27.5428 259.911 28.7879 258.617 29.8001C258.165 30.2183 257.627 30.5335 257.041 30.7241Z" fill="#E0E0E0"/>
<path d="M242.704 24.7761L240.608 26.1373L239.404 24.2564L241.433 22.9364C240.406 21.2447 239.877 19.2974 239.907 17.3184L242.852 16.8565C242.804 18.4162 243.159 19.9619 243.883 21.3443L246.96 19.3066C246.135 16.906 245.31 14.1423 247.967 12.4017C249.947 11.1147 252.578 11.4447 254.839 14.1753L256.909 12.8307L258.122 14.6951L256.093 16.0068C256.885 17.3913 257.34 18.9428 257.421 20.5358L254.517 21.0968C254.446 19.9031 254.143 18.7347 253.626 17.6567L250.45 19.7273C251.316 22.1115 252.1 24.8421 249.476 26.5498C247.53 27.7955 244.931 27.4737 242.704 24.7761ZM249.732 17.5329L252.389 15.8088C251.522 14.9838 250.739 14.9261 250.103 15.3303C249.468 15.7345 249.427 16.543 249.699 17.5329H249.732ZM247.323 23.6789C247.983 23.2499 247.983 22.4827 247.744 21.4928L245.162 23.1427C245.946 23.9676 246.696 24.0666 247.29 23.6789H247.323Z" fill="#E0E0E0"/>
<path d="M366.613 333.98C366.613 334.104 284.537 334.194 183.315 334.194C82.0919 334.194 0 334.104 0 333.98C0 333.856 82.0589 333.765 183.315 333.765C284.57 333.765 366.613 333.864 366.613 333.98Z" fill="#263238"/>
<path d="M49.0522 308.653C49.9844 305.048 47.6167 301.419 44.9273 298.803C42.238 296.188 39.1031 293.854 37.7254 290.381C35.4898 284.771 38.4926 277.511 34.6813 272.834C32.4374 270.078 28.4116 269.154 26.4317 266.234C25.384 264.691 25.0458 262.794 24.6333 260.979C22.5268 251.655 17.9506 243.07 11.3844 236.123C10.9463 244.421 12.747 252.684 16.5982 260.047C18.1409 262.984 20.0383 265.821 20.5497 269.121C21.3747 274.451 18.4049 279.945 19.7248 285.175C21.218 291.164 27.9744 295.174 28.2631 301.336C28.5354 306.55 23.9898 311.12 24.3281 316.326C24.6047 318.539 25.3989 320.656 26.6462 322.505C30.6885 329.236 36.587 333.848 45.5378 333.699L56.5263 334.079L49.0522 308.653Z" fill="#2C3F5B"/>
<g opacity="0.3">
<path opacity="0.3" d="M49.0522 308.653C49.9844 305.048 47.6167 301.419 44.9273 298.803C42.238 296.188 39.1031 293.854 37.7254 290.381C35.4898 284.771 38.4926 277.511 34.6813 272.834C32.4374 270.078 28.4116 269.154 26.4317 266.234C25.384 264.691 25.0458 262.794 24.6333 260.979C22.5268 251.655 17.9506 243.07 11.3844 236.123C10.9463 244.421 12.747 252.684 16.5982 260.047C18.1409 262.984 20.0383 265.821 20.5497 269.121C21.3747 274.451 18.4049 279.945 19.7248 285.175C21.218 291.164 27.9744 295.174 28.2631 301.336C28.5354 306.55 23.9898 311.12 24.3281 316.326C24.6047 318.539 25.3989 320.656 26.6462 322.505C30.6885 329.236 36.587 333.848 45.5378 333.699L56.5263 334.079L49.0522 308.653Z" fill="black"/>
</g>
<path d="M58.7372 334.005C59.7421 334.161 60.7666 334.142 61.7648 333.947C62.9788 333.762 64.1722 333.461 65.3286 333.048C66.9237 332.492 68.4152 331.675 69.7422 330.63C70.5384 329.988 71.1622 329.157 71.5571 328.213C71.8914 327.145 72.0638 326.033 72.0686 324.913C72.0933 323.724 72.1814 322.538 72.3326 321.358C72.5436 320.105 72.9976 318.906 73.669 317.827C74.9642 315.55 77.1173 313.397 77.7938 310.303C78.4703 307.21 78.0083 303.976 77.4968 300.676C76.9853 297.376 76.4904 293.788 77.7526 290.356C79.0147 286.924 81.3411 283.814 82.5456 279.945C83.75 276.076 83.1891 271.819 83.4365 267.669C83.5179 265.564 84.0053 263.494 84.872 261.573C85.7629 259.626 86.9921 257.795 87.9573 255.74C89.9042 251.616 90.2507 246.913 90.7869 242.318C91.0454 239.997 91.3204 237.657 91.6119 235.298C91.7779 232.92 92.187 230.564 92.8328 228.269C93.5746 225.953 94.4533 223.683 95.4645 221.472C95.9837 220.323 96.4086 219.134 96.7349 217.916C96.9214 216.664 97.0398 215.403 97.0896 214.138C97.2116 211.599 97.1149 209.054 96.8009 206.532C96.5039 203.999 96.0419 201.483 95.7697 198.942L95.7202 198.505L95.6625 198.001L95.217 198.224C92.8879 199.411 90.8638 201.119 89.302 203.215C87.7784 205.265 86.5534 207.52 85.6639 209.914C83.8325 214.633 83.1891 219.582 82.2486 224.301C81.3081 229.02 80.1862 233.681 77.7113 237.608C76.5151 239.563 75.0549 241.345 73.7762 243.259C72.4171 245.119 71.4873 247.258 71.0539 249.52C70.4022 254.165 72.9595 258.248 72.4316 262.365C72.1786 264.387 71.495 266.33 70.4269 268.065C69.4287 269.823 68.2573 271.448 67.1271 273.089C65.991 274.685 65.0025 276.38 64.1737 278.155C63.4002 279.897 62.9448 281.763 62.829 283.665C62.5568 287.369 63.0847 290.884 62.829 294.2C62.5257 297.359 61.6064 300.428 60.1231 303.233C58.7867 305.931 57.31 308.381 56.0726 310.749C55.4539 311.937 54.8764 313.092 54.4227 314.247C53.9834 315.371 53.66 316.538 53.4575 317.728C53.1334 319.804 53.1084 321.915 53.3832 323.998C53.676 326.895 54.7669 329.653 56.5346 331.967C56.8021 332.312 57.0973 332.635 57.4173 332.932C57.6383 333.159 57.8815 333.364 58.1432 333.543C58.5475 333.848 58.7702 333.98 58.7702 333.98C57.9822 333.363 57.268 332.657 56.6418 331.876C54.9458 329.55 53.9136 326.807 53.6554 323.94C53.4129 321.881 53.4601 319.798 53.7957 317.753C54.0072 316.593 54.3333 315.457 54.7691 314.362C55.2394 313.232 55.8168 312.077 56.4191 310.906C57.673 308.563 59.1662 306.129 60.5439 303.407C62.0774 300.559 63.0308 297.435 63.3487 294.217C63.6375 290.826 63.1342 287.303 63.4147 283.682C63.5326 281.844 63.9797 280.041 64.7347 278.361C65.5535 276.624 66.5311 274.968 67.655 273.411C68.7605 271.761 69.9484 270.153 70.9549 268.354C72.0718 266.55 72.7892 264.527 73.0585 262.423C73.5865 258.034 71.0456 253.926 71.7056 249.611C72.1267 247.444 73.0257 245.398 74.3372 243.622C75.5912 241.741 77.0596 239.959 78.297 237.954C80.7719 233.912 82.0011 229.185 82.9168 224.441C83.8325 219.698 84.509 214.798 86.3156 210.17C87.1798 207.84 88.3714 205.646 89.8547 203.652C91.3487 201.641 93.2887 200.003 95.5222 198.868L95.0107 198.587L95.0602 199.033C95.3407 201.598 95.7945 204.123 96.0914 206.622C96.4012 209.106 96.4978 211.612 96.3802 214.113C96.3359 215.342 96.223 216.568 96.0419 217.784C95.7282 218.957 95.3171 220.103 94.8127 221.208C93.797 223.445 92.9128 225.739 92.1646 228.08C91.5043 230.411 91.0895 232.806 90.9272 235.224C90.6632 237.594 90.4047 239.937 90.1517 242.252C89.6237 246.864 89.2773 251.484 87.4046 255.452C86.4724 257.44 85.2432 259.28 84.3275 261.292C83.4329 263.284 82.9315 265.43 82.8508 267.612C82.6116 271.852 83.1643 276.002 82.0259 279.755C80.8874 283.509 78.495 286.611 77.2823 290.158C76.0696 293.705 76.5234 297.451 77.0431 300.734C77.5628 304.017 78.1073 307.259 77.3978 310.188C76.6884 313.117 74.6755 315.27 73.3555 317.613C72.6651 318.735 72.2025 319.982 71.9943 321.284C71.8471 322.477 71.77 323.678 71.7633 324.88C71.762 325.962 71.6036 327.037 71.2931 328.073C70.9257 328.974 70.3386 329.768 69.5854 330.383C68.294 331.422 66.8424 332.243 65.2874 332.817C64.1457 333.243 62.9663 333.561 61.7648 333.765C61.0268 333.899 60.2792 333.974 59.5292 333.988C59.0342 333.996 58.7372 334.005 58.7372 334.005Z" fill="#263238"/>
<path d="M93.4846 204.568C93.4368 204.677 93.4008 204.79 93.3773 204.906C93.3113 205.17 93.2371 205.492 93.1381 205.896C92.9236 206.763 92.6596 208.066 92.2471 209.699C91.8346 211.333 90.8199 213.164 89.9702 215.433C88.967 217.986 88.0942 220.588 87.3551 223.229C86.5301 226.157 85.7712 229.416 84.9957 232.897C84.2203 236.379 83.3953 240.107 81.4814 243.622C80.5822 245.404 79.5675 247.21 78.759 249.19C77.968 251.216 77.4385 253.334 77.1833 255.493C76.6288 259.962 75.8357 264.399 74.8074 268.783C72.6048 277.792 70.5094 286.363 68.5955 294.175L63.39 314.882C61.9463 320.739 60.7666 325.499 59.9416 328.849C59.5622 330.498 59.2569 331.736 59.0342 332.66C58.9517 333.064 58.8774 333.394 58.8197 333.658C58.7869 333.768 58.7702 333.882 58.7702 333.996C58.8226 333.894 58.864 333.786 58.8939 333.675L59.1744 332.693C59.4302 331.777 59.7684 330.515 60.2056 328.923C61.0883 325.573 62.3423 320.838 63.8767 314.997L69.2307 294.332C71.1611 286.52 73.273 277.948 75.5004 268.94C76.5254 264.536 77.3158 260.08 77.8681 255.592C78.1105 253.498 78.612 251.442 79.3612 249.471C80.1367 247.549 81.1349 245.75 82.0341 243.944C83.9728 240.363 84.773 236.519 85.5484 233.054C86.3239 229.589 87.0086 226.314 87.8088 223.386C88.609 220.457 89.4588 217.858 90.2837 215.606C91.1087 213.354 92.0574 211.481 92.4616 209.79C92.8658 208.099 93.0556 206.829 93.2288 205.946C93.2948 205.542 93.3526 205.212 93.4021 204.948C93.4444 204.825 93.4721 204.697 93.4846 204.568Z" fill="#263238"/>
<path d="M60.7089 334.079C67.886 329.814 69.9484 317.192 66.9538 309.396C63.9592 301.6 58.7042 294.481 57.8792 286.173C57.2523 279.788 59.3477 273.23 57.8792 266.985C55.8828 258.545 47.658 252.036 47.757 243.374C47.8065 238.515 50.5701 233.945 50.3556 229.086C50.0834 223.138 45.5131 218.411 42.6835 213.164C38.3442 205.137 38.0637 195.642 36.5788 186.642C35.0938 177.641 31.629 167.998 23.6929 163.543C22.5132 171.182 20.5003 176.42 21.1355 186.774C21.3582 190.494 25.681 197.605 26.2667 205.748C26.6215 210.623 26.8607 215.499 27.1577 220.374C27.4464 225.118 27.7517 229.944 29.4593 234.399C30.7628 237.806 32.8499 240.891 33.8234 244.405C35.6383 251.005 33.2459 258.166 34.7143 264.856C35.96 270.524 39.8868 275.408 40.6871 281.158C41.8173 289.234 36.5623 297.657 39.2599 305.329C40.5881 309.157 43.7394 312.226 44.6304 316.169C45.3233 319.238 44.5644 322.48 45.1913 325.557C46.206 330.507 55.6601 334.368 60.7089 334.054" fill="#2C3F5B"/>
<path d="M25.6645 171.157C25.6516 171.303 25.6516 171.449 25.6645 171.594C25.6645 171.916 25.7635 172.329 25.8295 172.848C25.9945 173.954 26.176 175.571 26.5472 177.666C26.9185 179.762 28.0404 182.146 28.9066 185.008C29.7728 187.871 30.7298 191.154 31.5382 194.834C32.3467 198.513 33.0397 202.596 33.7574 206.977C34.4751 211.358 35.2671 216.142 37.4367 220.713C38.4432 223.006 39.5734 225.299 40.4231 227.75C41.2513 230.26 41.7585 232.866 41.9327 235.504C42.3359 241.109 43.0409 246.689 44.0447 252.218C46.239 263.545 48.3344 274.327 50.2401 284.152C52.1458 293.977 54.0597 302.738 55.5776 310.155C57.0955 317.571 58.366 323.494 59.2404 327.677C59.6777 329.706 60.0241 331.299 60.2716 332.437C60.3871 332.949 60.4861 333.353 60.5604 333.666C60.5842 333.807 60.6229 333.946 60.6759 334.079C60.6812 333.934 60.6645 333.789 60.6264 333.65C60.5686 333.336 60.5026 332.924 60.4119 332.404C60.1974 331.266 59.8922 329.665 59.5127 327.619C58.6877 323.428 57.5163 317.439 56.0726 310.056C54.6289 302.672 52.8305 293.812 50.8753 284.02L44.7376 252.102C43.7483 246.591 43.0543 241.031 42.6587 235.446C42.4723 232.754 41.9457 230.095 41.0913 227.535C40.2168 225.06 39.0784 222.734 38.0637 220.457C35.9023 215.961 35.1433 211.259 34.3679 206.886C33.5924 202.514 32.9077 198.422 32.058 194.735C31.2083 191.047 30.2678 187.747 29.3108 184.893C28.3539 182.038 27.2814 179.671 26.836 177.617C26.3905 175.562 26.1925 173.921 26.011 172.832C25.912 172.32 25.8378 171.908 25.78 171.586C25.761 171.439 25.7222 171.294 25.6645 171.157Z" fill="#263238"/>
<path d="M338.399 284.944C339.514 285.476 340.51 286.227 341.328 287.152C342.146 288.078 342.769 289.159 343.159 290.331C343.922 292.685 344.14 295.182 343.794 297.632C343.258 302.376 340.56 307.152 337.665 310.939C333.672 307.457 332.715 301.386 332.484 298.275C332.055 293.326 334.258 284.21 338.399 284.944Z" fill="#2C3F5B"/>
<path d="M342.293 318.767C342.026 317.417 342.12 316.019 342.565 314.716C343.009 313.413 343.789 312.249 344.825 311.343C345.881 310.454 347.103 309.784 348.42 309.372C349.738 308.96 351.123 308.814 352.498 308.942C353.134 308.935 353.765 309.066 354.346 309.327C354.928 309.588 355.445 309.971 355.863 310.452C356.176 310.961 356.347 311.546 356.357 312.143C356.367 312.741 356.217 313.331 355.921 313.851C355.316 314.884 354.448 315.738 353.405 316.326C349.948 318.495 346.203 319.964 342.293 318.8" fill="#2C3F5B"/>
<path d="M337.178 333.27C337.197 332.942 337.244 332.617 337.318 332.297C337.442 331.612 337.607 330.729 337.805 329.665C338.246 326.729 339.163 323.884 340.519 321.242C341.923 318.607 344.005 316.394 346.55 314.832C347.326 314.369 348.158 314.003 349.024 313.744C349.257 313.67 349.494 313.609 349.734 313.562C349.899 313.562 349.99 313.513 349.99 313.562C348.016 314.199 346.189 315.224 344.616 316.577C343.044 317.93 341.757 319.584 340.833 321.44C339.505 324.038 338.571 326.818 338.061 329.69C337.813 330.795 337.615 331.686 337.467 332.297C337.405 332.631 337.308 332.957 337.178 333.27Z" fill="#263238"/>
<path d="M337.327 292.03C337.353 292.172 337.37 292.315 337.376 292.459C337.376 292.773 337.417 293.177 337.45 293.68C337.508 294.736 337.566 296.271 337.632 298.176C337.747 301.971 337.846 307.251 337.822 313.026C337.797 318.8 337.657 324.072 337.5 327.875C337.426 329.772 337.343 331.307 337.277 332.371C337.277 332.866 337.219 333.27 337.195 333.592C337.193 333.734 337.177 333.875 337.145 334.013C337.133 333.87 337.133 333.726 337.145 333.584C337.145 333.27 337.145 332.866 337.145 332.363C337.145 331.257 337.211 329.731 337.252 327.867C337.351 324.072 337.45 318.792 337.475 313.017C337.5 307.243 337.475 301.979 337.384 298.168C337.384 296.304 337.335 294.778 337.31 293.672V292.451C337.304 292.311 337.309 292.17 337.327 292.03Z" fill="#263238"/>
<path d="M335.388 321.622C334.907 318.75 333.748 316.035 332.008 313.7C330.268 311.366 327.996 309.48 325.381 308.2C324.053 307.556 322.304 307.144 321.215 308.134C320.126 309.124 320.39 310.914 320.893 312.259C322.068 315.118 324.062 317.567 326.625 319.296C329.188 321.025 332.205 321.958 335.297 321.977" fill="#2C3F5B"/>
<path d="M326.025 312.696C326.311 312.788 326.588 312.91 326.849 313.059C327.178 313.211 327.497 313.382 327.806 313.57C328.226 313.805 328.634 314.061 329.027 314.337C329.51 314.662 329.976 315.012 330.422 315.385C330.939 315.808 331.435 316.257 331.907 316.73C332.977 317.828 333.921 319.043 334.72 320.351C335.497 321.676 336.12 323.084 336.576 324.55C336.768 325.19 336.925 325.84 337.046 326.497C337.156 327.07 337.236 327.649 337.285 328.23C337.334 328.707 337.356 329.186 337.351 329.665C337.374 330.025 337.374 330.386 337.351 330.746C337.349 331.056 337.315 331.366 337.252 331.67C337.17 331.67 337.31 330.35 337.079 328.255C337.015 327.684 336.922 327.116 336.799 326.555C336.67 325.911 336.505 325.275 336.304 324.649C335.842 323.21 335.223 321.827 334.456 320.525C333.672 319.235 332.751 318.035 331.709 316.944C331.25 316.472 330.769 316.023 330.265 315.6C329.837 315.218 329.388 314.86 328.92 314.527C327.196 313.306 326.025 312.762 326.025 312.696Z" fill="#263238"/>
<path d="M279.959 153.124C279.959 153.124 241.441 125.826 236.566 123.144C231.921 120.587 217.179 118.731 215.859 118.409L189.461 112.634L149.136 113.839L137.587 120.793L108.317 134.306C100.34 137.981 94.0521 144.543 90.721 152.67L72.2418 197.803L118.134 211.366L119.562 258.974L108.746 333.98H242.951L236.195 190.23L250.169 193.307L279.959 153.124Z" fill="#263238"/>
<path d="M118.959 192.194C118.959 192.194 118.473 192.548 117.54 193.093C116.227 193.891 114.769 194.423 113.251 194.66C110.977 194.82 108.695 194.488 106.56 193.687C103.928 192.811 101.378 191.706 98.9376 190.387C96.3225 189.026 93.8723 187.648 91.5789 186.543C89.5563 185.533 87.4538 184.691 85.2927 184.027C83.8333 183.588 82.3365 183.284 80.8214 183.119C80.2852 183.061 79.8727 183.037 79.584 183.028H79.155C79.7057 183.008 80.257 183.028 80.805 183.086C82.3274 183.21 83.8336 183.487 85.301 183.911C87.4741 184.554 89.5882 185.382 91.6202 186.386C93.9301 187.491 96.3802 188.861 98.9953 190.23C101.428 191.541 103.967 192.645 106.585 193.53C108.69 194.325 110.939 194.665 113.185 194.528C114.69 194.307 116.138 193.798 117.45 193.027C117.92 192.763 118.275 192.548 118.522 192.4C118.77 192.251 118.959 192.194 118.959 192.194Z" fill="white"/>
<path d="M116.996 169.953H116.691L115.816 169.912C115.057 169.87 113.96 169.788 112.607 169.656C105.56 168.946 98.6305 167.35 91.9832 164.904C90.7045 164.434 89.6815 164.03 88.9803 163.733L88.1554 163.386L87.8749 163.254L88.1719 163.353L88.9968 163.667C89.7063 163.947 90.7375 164.335 92.0162 164.789C98.6811 167.173 105.603 168.765 112.64 169.532C113.985 169.681 115.115 169.788 115.833 169.846L116.707 169.92L116.996 169.953Z" fill="white"/>
<path d="M145.845 123.144C145.845 123.144 145.498 123.705 144.772 124.646C143.737 125.967 142.549 127.16 141.233 128.201C139.263 129.728 137.116 131.013 134.84 132.029C132.055 133.275 129.185 134.323 126.252 135.164C123.142 136.088 120.172 136.905 117.507 137.779C115.138 138.529 112.828 139.453 110.594 140.543C109.089 141.276 107.649 142.134 106.288 143.109C105.793 143.439 105.463 143.744 105.199 143.933C104.935 144.123 104.811 144.214 104.811 144.214C104.811 144.214 105.298 143.769 106.247 143.051C107.6 142.056 109.035 141.179 110.536 140.427C112.771 139.326 115.085 138.391 117.458 137.631C120.123 136.74 123.101 135.923 126.203 134.999C129.128 134.162 131.992 133.123 134.774 131.889C137.041 130.88 139.183 129.612 141.159 128.111C142.49 127.092 143.699 125.923 144.764 124.629C145.152 124.184 145.391 123.804 145.589 123.549C145.787 123.293 145.845 123.144 145.845 123.144Z" fill="white"/>
<path d="M228.382 129.29C228.382 129.29 228.258 129.233 228.027 129.101C227.796 128.969 227.483 128.771 227.038 128.548C225.81 127.893 224.529 127.341 223.21 126.898C221.248 126.24 219.24 125.724 217.204 125.355C214.911 124.918 212.361 124.58 209.689 124.2L196.011 122.262L191.886 121.651L190.756 121.478L190.368 121.404L190.764 121.445L191.894 121.585L196.019 122.138L209.705 124.027C212.378 124.398 214.927 124.745 217.229 125.19C219.268 125.565 221.276 126.095 223.234 126.774C224.559 127.232 225.84 127.806 227.062 128.49C227.937 128.977 228.382 129.29 228.382 129.29Z" fill="white"/>
<path d="M209.705 138.398C209.705 138.398 209.4 138.547 208.814 138.802C208.228 139.058 207.354 139.429 206.224 139.883C203.955 140.782 200.647 142.028 196.456 143.249C191.553 144.702 186.552 145.805 181.491 146.549C175.774 147.423 169.397 147.423 162.757 147.2C156.116 146.978 149.755 146.697 143.997 147.06C138.896 147.307 133.85 148.228 128.991 149.799C125.717 150.876 122.608 152.4 119.751 154.328C118.77 155.037 118.002 155.598 117.524 156.027C117.045 156.456 116.765 156.646 116.765 156.646C116.765 156.646 117.012 156.415 117.499 156.003C117.986 155.59 118.728 154.996 119.718 154.27C122.564 152.315 125.672 150.771 128.95 149.683C133.817 148.094 138.875 147.159 143.989 146.903C149.763 146.532 156.107 146.813 162.757 147.027C169.406 147.242 175.766 147.258 181.475 146.392C186.529 145.646 191.525 144.544 196.423 143.092C200.606 141.888 203.922 140.658 206.199 139.792C207.337 139.347 208.212 138.967 208.798 138.736L209.705 138.398Z" fill="white"/>
<path d="M222.343 146.466C222.299 146.499 222.248 146.524 222.195 146.54L221.758 146.697C221.378 146.837 220.826 147.019 220.108 147.217C218.301 147.733 216.435 148.01 214.556 148.042C212.675 148.044 210.803 147.766 209.004 147.217C208.311 147.011 207.758 146.821 207.354 146.672L206.925 146.499L206.776 146.425H206.941L207.379 146.565C207.758 146.697 208.311 146.87 209.029 147.06C210.825 147.561 212.683 147.811 214.548 147.803C216.416 147.749 218.272 147.472 220.075 146.978C220.76 146.788 221.321 146.631 221.725 146.507L222.162 146.384L222.343 146.466Z" fill="white"/>
<path d="M196.316 169.813C196.316 169.813 192.356 170.637 185.897 171.611C182.663 172.098 178.802 172.576 174.504 173.005C170.206 173.434 165.429 173.756 160.48 173.946C155.53 174.135 150.745 174.119 146.455 174.028C142.166 173.937 138.206 173.706 134.988 173.459C128.471 172.964 124.47 172.419 124.47 172.419L125.196 172.477L127.291 172.683C129.106 172.873 131.738 173.104 134.997 173.335C138.255 173.566 142.141 173.756 146.455 173.863C150.77 173.97 155.53 173.946 160.48 173.772C165.429 173.599 170.189 173.244 174.504 172.848C178.819 172.452 182.663 171.957 185.897 171.487C189.131 171.017 191.737 170.604 193.536 170.283L195.606 169.92L196.316 169.813Z" fill="white"/>
<path d="M228.621 167.47H228.324H227.5C226.749 167.47 225.668 167.47 224.332 167.47C221.659 167.47 217.963 167.362 213.904 167.016C209.845 166.669 206.174 166.117 203.551 165.638C202.231 165.407 201.175 165.193 200.441 165.036L199.616 164.855L199.327 164.78H199.624L200.449 164.929L203.559 165.481C206.191 165.927 209.845 166.455 213.904 166.801C217.963 167.148 221.659 167.263 224.323 167.305H227.491H228.316L228.621 167.47Z" fill="white"/>
<path d="M187.431 201.475C187.431 201.475 187.192 201.524 186.755 201.582L184.808 201.854C183.983 201.978 182.927 202.118 181.714 202.2C180.501 202.283 179.132 202.448 177.589 202.473C176.047 202.497 174.397 202.613 172.64 202.58C171.74 202.58 170.816 202.58 169.859 202.58L166.914 202.481C162.88 202.324 158.458 202.019 153.822 201.656C149.186 201.293 144.748 200.831 140.747 200.592C136.746 200.353 133.099 200.171 130.022 200.221H127.852L125.914 200.32C124.709 200.369 123.662 200.427 122.82 200.534L120.865 200.724L120.18 200.782C120.18 200.782 120.42 200.74 120.865 200.691L122.812 200.46C123.637 200.344 124.701 200.287 125.914 200.221L127.852 200.113H130.022C133.074 200.056 136.713 200.204 140.747 200.452C144.781 200.699 149.186 201.112 153.822 201.499C158.458 201.887 162.897 202.209 166.906 202.382L169.843 202.489C170.8 202.489 171.724 202.489 172.623 202.489C174.413 202.489 176.08 202.448 177.573 202.407C179.066 202.365 180.468 202.225 181.698 202.151C182.927 202.077 183.942 201.953 184.791 201.837L186.738 201.598L187.431 201.475Z" fill="white"/>
<path d="M235.98 191.789L235.617 191.847L234.561 191.954C233.654 192.053 232.326 192.161 230.692 192.276C227.392 192.499 222.88 192.656 217.872 192.532C212.865 192.408 208.336 191.996 205.077 191.6C203.427 191.402 202.132 191.22 201.225 191.08L200.185 190.915L199.822 190.841L200.185 190.882L201.233 191.014C202.14 191.138 203.46 191.303 205.094 191.484C208.352 191.847 212.865 192.227 217.872 192.359C222.88 192.491 227.409 192.359 230.684 192.152C232.334 192.062 233.646 191.963 234.561 191.888L235.609 191.806L235.98 191.789Z" fill="white"/>
<path d="M236.566 221.769L235.361 221.703C234.536 221.703 233.406 221.538 231.905 221.496C228.902 221.34 224.554 221.307 219.184 221.571C213.813 221.835 207.453 222.47 200.408 223.402C193.363 224.334 185.641 225.547 177.532 226.57C169.873 227.603 162.16 228.189 154.433 228.327C148.132 228.435 141.835 227.979 135.615 226.966C131.424 226.275 127.298 225.231 123.282 223.847C122.564 223.625 121.946 223.385 121.41 223.171L120.04 222.627C119.306 222.338 118.926 222.173 118.926 222.173L120.057 222.594L121.426 223.121C121.962 223.336 122.589 223.567 123.307 223.79C127.327 225.146 131.452 226.167 135.64 226.842C141.853 227.835 148.142 228.279 154.433 228.17C162.16 228.015 169.873 227.414 177.532 226.372C185.657 225.324 193.379 224.12 200.433 223.212C207.486 222.305 213.83 221.694 219.184 221.422C223.421 221.206 227.667 221.206 231.905 221.422C234.908 221.595 236.566 221.769 236.566 221.769Z" fill="white"/>
<path d="M191.201 252.573C191.201 252.573 187.233 253.249 180.765 253.942C177.54 254.289 173.679 254.602 169.389 254.85C165.099 255.097 160.364 255.212 155.406 255.188C150.448 255.163 145.721 254.932 141.431 254.652C137.142 254.371 133.289 253.975 130.063 253.579C123.604 252.754 119.652 252.061 119.652 252.061L120.378 252.152L122.449 252.457C123.34 252.597 124.445 252.754 125.749 252.911C127.052 253.068 128.488 253.29 130.096 253.455C133.33 253.835 137.183 254.198 141.464 254.495C145.746 254.792 150.473 254.965 155.431 255.015C160.389 255.064 165.116 254.907 169.406 254.693C173.696 254.478 177.548 254.157 180.782 253.818C182.432 253.67 183.859 253.48 185.138 253.34C186.416 253.2 187.522 253.051 188.438 252.927L190.508 252.655L191.201 252.573Z" fill="white"/>
<path d="M236.104 246.666C236.104 246.666 235.947 246.724 235.658 246.806L234.396 247.194C233.291 247.524 231.69 247.978 229.702 248.514C225.734 249.578 220.199 250.898 214.028 252.028C207.857 253.158 202.206 253.893 198.114 254.305C196.068 254.511 194.41 254.651 193.264 254.734L191.944 254.825H191.482L191.935 254.767L193.255 254.643C194.402 254.544 196.06 254.379 198.098 254.156C202.223 253.711 207.824 252.969 213.995 251.838C220.166 250.708 225.693 249.405 229.669 248.365C231.657 247.854 233.258 247.417 234.363 247.103L235.642 246.748L236.104 246.666Z" fill="white"/>
<path d="M159.729 286.965C157.603 287.295 155.46 287.507 153.311 287.6C151.323 287.708 148.947 287.716 146.307 287.6C140.586 287.327 134.918 286.377 129.42 284.771C126.887 284.02 124.643 283.236 122.82 282.486C120.82 281.691 118.862 280.794 116.955 279.796L117.367 279.978L118.53 280.514C119.034 280.753 119.652 281.042 120.387 281.339C121.121 281.636 121.929 282.015 122.861 282.362C124.709 283.104 126.986 283.872 129.461 284.614C132.209 285.39 134.996 286.024 137.81 286.511C140.628 286.957 143.466 287.26 146.315 287.419C148.947 287.534 151.314 287.543 153.302 287.419C154.301 287.419 155.2 287.312 155.992 287.262C156.784 287.213 157.452 287.138 158.013 287.081L159.283 286.949L159.729 286.965Z" fill="white"/>
<path d="M239.09 284.862L238.265 285.01L235.906 285.39C233.86 285.711 230.89 286.165 227.219 286.685C219.877 287.732 209.705 289.036 198.444 290.158C187.184 291.28 176.946 291.989 169.571 292.402C165.867 292.608 162.864 292.756 160.793 292.839L158.409 292.93H157.584L158.409 292.88L160.793 292.756L169.562 292.27C176.987 291.824 187.184 291.082 198.436 289.968C209.689 288.854 219.885 287.567 227.211 286.553L235.906 285.307L238.265 284.961L239.09 284.862Z" fill="white"/>
<path d="M243.413 315.245C243.413 315.245 241.615 315.624 238.323 316.161C235.031 316.697 230.263 317.365 224.299 317.86C217.343 318.427 210.361 318.598 203.386 318.371C195.508 318.116 186.887 317.233 177.87 316.128C168.853 315.022 160.257 313.908 152.412 313.298C145.463 312.699 138.484 312.542 131.515 312.828C126.81 313.047 122.125 313.582 117.491 314.428C115.841 314.742 114.587 315.006 113.737 315.212L112.434 315.509C112.434 315.509 112.879 315.385 113.729 315.179C114.579 314.973 115.841 314.692 117.474 314.354C122.105 313.479 126.791 312.927 131.499 312.704C138.469 312.391 145.452 312.532 152.403 313.125C160.265 313.735 168.853 314.849 177.87 315.954C186.887 317.06 195.508 317.942 203.378 318.198C210.346 318.436 217.323 318.279 224.274 317.728C230.205 317.25 234.998 316.598 238.298 316.078C239.948 315.814 241.219 315.608 242.085 315.451L243.413 315.245Z" fill="white"/>
<path d="M267.617 145.74C267.617 145.74 267.378 146.392 266.842 147.53C266.069 149.131 265.169 150.667 264.152 152.125C262.64 154.281 260.986 156.334 259.203 158.271C257.206 160.482 254.913 162.809 252.603 165.333C250.397 167.681 248.383 170.203 246.581 172.873C245.112 175.056 243.923 177.415 243.042 179.894C242.441 181.583 242.05 183.339 241.879 185.124C241.796 185.743 241.821 186.237 241.796 186.567C241.771 186.897 241.796 187.071 241.796 187.071C241.774 186.419 241.791 185.766 241.846 185.116C241.987 183.338 242.356 181.586 242.943 179.902C243.813 177.408 244.997 175.035 246.465 172.84C248.268 170.155 250.284 167.619 252.496 165.259C254.822 162.743 257.124 160.416 259.095 158.214C260.875 156.284 262.528 154.242 264.045 152.101C265.073 150.656 265.986 149.134 266.776 147.547C267.073 146.986 267.246 146.532 267.395 146.235C267.543 145.938 267.617 145.74 267.617 145.74Z" fill="white"/>
<path d="M229.62 159.954L229.9 159.748L230.725 159.187C231.451 158.717 232.466 157.991 233.687 157.05C234.908 156.11 236.318 154.938 237.811 153.553C239.421 152.042 240.949 150.448 242.39 148.776C243.813 147.086 245.148 145.323 246.391 143.496C247.513 141.797 248.462 140.196 249.188 138.868C249.914 137.54 250.475 136.393 250.838 135.568L251.258 134.669L251.415 134.356C250.796 135.917 250.091 137.443 249.303 138.926C248.585 140.295 247.653 141.879 246.523 143.579C245.293 145.421 243.96 147.192 242.53 148.883C241.085 150.562 239.549 152.159 237.927 153.668C236.417 155.046 235.007 156.225 233.802 157.149C232.462 158.162 231.065 159.099 229.62 159.954Z" fill="white"/>
<path d="M170.66 198.529C170.721 198.489 170.787 198.459 170.858 198.439L171.452 198.208C171.988 198.026 172.739 197.696 173.704 197.251C176.387 195.899 178.849 194.146 181.005 192.053C184.183 188.933 186.987 185.453 189.362 181.684C192.341 177.11 195.062 172.373 197.512 167.494C201.907 158.599 205.763 149.447 209.062 140.089C210.357 136.509 211.363 133.588 212.073 131.584L212.898 129.266C212.988 129.018 213.063 128.828 213.12 128.663C213.178 128.498 213.203 128.465 213.203 128.465C213.199 128.538 213.185 128.611 213.162 128.68C213.112 128.845 213.046 129.043 212.972 129.29C212.799 129.86 212.551 130.643 212.229 131.633C211.578 133.663 210.58 136.583 209.342 140.188C206.118 149.593 202.285 158.778 197.867 167.684C195.413 172.576 192.678 177.322 189.675 181.898C187.266 185.677 184.42 189.157 181.194 192.268C179.008 194.36 176.502 196.09 173.77 197.391C173.026 197.735 172.263 198.035 171.485 198.29L170.874 198.48C170.806 198.507 170.733 198.524 170.66 198.529Z" fill="#455A64"/>
<path d="M169.282 215.986C169.418 215.855 169.567 215.739 169.727 215.639L171.064 214.723C172.211 213.898 173.869 212.735 175.865 211.209C179.866 208.165 185.121 203.619 190.764 198.43C193.602 195.84 196.316 193.39 198.659 191.047C200.753 188.987 202.7 186.782 204.483 184.447C205.679 182.868 206.744 181.193 207.667 179.44C208.014 178.829 208.228 178.326 208.393 177.996C208.472 177.825 208.563 177.659 208.666 177.501C208.624 177.687 208.561 177.867 208.476 178.037C208.327 178.376 208.138 178.862 207.808 179.514C206.938 181.309 205.902 183.018 204.714 184.621C202.964 186.998 201.033 189.238 198.939 191.319C196.596 193.695 193.891 196.154 191.053 198.744C186.269 203.23 181.26 207.47 176.047 211.448C174.026 212.958 172.343 214.096 171.155 214.864C170.569 215.251 170.099 215.524 169.785 215.689C169.624 215.799 169.456 215.898 169.282 215.986Z" fill="#455A64"/>
<path d="M147.008 304.182L147.107 303.992C147.198 303.86 147.305 303.687 147.437 303.473C147.726 303.011 148.171 302.351 148.765 301.509C149.961 299.859 151.801 297.492 154.226 294.736C159.118 289.242 165.966 281.76 173.514 273.469L192.909 252.309L198.824 245.923L200.474 244.199L200.903 243.762C201.002 243.663 201.051 243.614 201.059 243.622C201.068 243.63 201.018 243.68 200.936 243.787L200.532 244.257L198.981 246.031C197.578 247.582 195.598 249.793 193.165 252.498L173.852 273.749L154.433 294.926C151.958 297.657 150.11 299.967 148.881 301.608C148.262 302.433 147.8 303.077 147.487 303.514L147.132 304.017C147.099 304.078 147.058 304.134 147.008 304.182Z" fill="#455A64"/>
<path d="M224.026 155.912C223.892 155.502 223.79 155.083 223.721 154.658C223.63 154.254 223.531 153.751 223.457 153.165C223.383 152.579 223.259 151.911 223.226 151.168C223.193 150.426 223.102 149.609 223.111 148.694C223.119 147.778 223.111 146.879 223.177 145.889C223.463 141.614 224.508 137.423 226.262 133.514C226.683 132.623 227.087 131.774 227.516 131.039C227.945 130.305 228.341 129.571 228.762 128.944C229.182 128.317 229.587 127.764 229.9 127.294C230.189 126.879 230.5 126.479 230.832 126.098C231.083 125.756 231.359 125.433 231.657 125.133C231.444 125.508 231.198 125.864 230.923 126.197C230.676 126.527 230.37 126.931 230.057 127.426C229.743 127.921 229.339 128.457 228.976 129.076C228.613 129.695 228.151 130.404 227.78 131.18C227.409 131.955 226.955 132.83 226.576 133.654C224.872 137.544 223.84 141.695 223.523 145.93C223.474 146.903 223.399 147.827 223.416 148.694C223.432 149.56 223.416 150.343 223.482 151.111C223.548 151.878 223.597 152.513 223.655 153.099C223.713 153.685 223.779 154.188 223.845 154.6C223.948 155.031 224.008 155.47 224.026 155.912Z" fill="#455A64"/>
<path d="M236.03 185.512C235.931 185.512 234.446 182.278 232.73 178.186C231.014 174.094 229.694 170.761 229.793 170.695C231.015 173.08 232.117 175.525 233.093 178.021C234.202 180.465 235.183 182.965 236.03 185.512Z" fill="#455A64"/>
<path d="M118.134 159.352C118.068 159.393 117.425 158.214 116.212 156.423C113.044 151.75 108.95 147.777 104.184 144.75C102.361 143.595 101.165 142.985 101.198 142.919C101.502 143.007 101.795 143.129 102.072 143.282C102.625 143.538 103.401 143.95 104.341 144.503C106.783 145.96 109.048 147.696 111.089 149.675C113.126 151.662 114.928 153.876 116.46 156.275C117.037 157.199 117.474 157.966 117.747 158.511C117.904 158.777 118.034 159.059 118.134 159.352Z" fill="#455A64"/>
<path d="M150.514 139.85C150.467 139.577 150.467 139.298 150.514 139.025C150.654 137.475 151.321 136.019 152.403 134.9L152.453 134.851V134.908C152.512 135.024 152.556 135.145 152.585 135.271C152.585 135.271 152.494 135.164 152.379 134.95H152.453C151.918 135.582 151.481 136.291 151.158 137.053C150.814 137.951 150.598 138.892 150.514 139.85Z" fill="#455A64"/>
<path d="M161.437 145.526C161.332 145.263 161.274 144.984 161.263 144.701C161.192 144.025 161.208 143.343 161.313 142.671C161.418 142.001 161.609 141.346 161.882 140.724C161.981 140.462 162.12 140.217 162.295 139.998C161.923 140.868 161.646 141.775 161.47 142.704C161.358 143.641 161.347 144.587 161.437 145.526Z" fill="#455A64"/>
<path d="M173.341 144.569C173.302 143.799 173.197 143.035 173.027 142.284C172.797 141.544 172.496 140.829 172.128 140.147C172.293 140.309 172.433 140.495 172.541 140.7C172.826 141.179 173.045 141.696 173.192 142.234C173.335 142.773 173.41 143.327 173.415 143.884C173.43 144.115 173.405 144.346 173.341 144.569Z" fill="#455A64"/>
<path d="M183.752 140.007C183.401 139.273 182.987 138.572 182.514 137.911C181.986 137.294 181.407 136.723 180.782 136.204C181.006 136.295 181.215 136.42 181.401 136.575C181.867 136.93 182.285 137.343 182.646 137.804C183.006 138.268 183.305 138.775 183.537 139.314C183.646 139.532 183.718 139.766 183.752 140.007Z" fill="#455A64"/>
<path d="M190.921 132.937C190.656 132.069 190.163 131.288 189.494 130.676C188.798 130.097 187.956 129.723 187.06 129.596C187.06 129.596 187.142 129.596 187.283 129.596C187.48 129.602 187.676 129.627 187.868 129.67C188.512 129.823 189.109 130.129 189.609 130.561C190.111 130.991 190.499 131.538 190.739 132.153C190.817 132.335 190.872 132.527 190.904 132.722C190.919 132.793 190.925 132.865 190.921 132.937Z" fill="#455A64"/>
<path d="M194.757 119.878C194.122 119.37 193.38 119.015 192.587 118.838C191.782 118.715 190.96 118.783 190.187 119.036C190.932 118.647 191.785 118.516 192.613 118.666C193.441 118.815 194.195 119.236 194.757 119.861V119.878Z" fill="#455A64"/>
<path d="M143.354 131.048C143.369 130.803 143.428 130.563 143.527 130.338C143.966 129.233 144.797 128.328 145.861 127.797C146.077 127.68 146.312 127.602 146.554 127.566C145.807 127.89 145.136 128.367 144.584 128.967C144.033 129.567 143.613 130.275 143.354 131.048Z" fill="#455A64"/>
<path d="M140.747 122.353C140.846 122.111 140.985 121.888 141.159 121.693C141.545 121.189 142.011 120.752 142.537 120.397C143.063 120.036 143.642 119.758 144.253 119.572C144.499 119.486 144.759 119.441 145.02 119.44C143.305 119.881 141.795 120.901 140.747 122.328V122.353Z" fill="#455A64"/>
<path d="M120.238 173.055C120.238 173.055 120.238 173.005 120.189 173.055C120.154 173.139 120.129 173.228 120.114 173.319C120.073 173.574 120.032 173.946 119.982 174.432C119.883 175.398 119.776 176.8 119.661 178.557C119.421 182.03 119.149 186.807 118.893 192.144C118.638 197.482 118.44 202.258 118.324 205.74C118.266 207.389 118.225 208.825 118.192 209.864C118.192 210.31 118.192 210.689 118.143 210.986C118.155 211.115 118.155 211.245 118.143 211.374C118.106 211.248 118.092 211.117 118.101 210.986C118.101 210.681 118.101 210.31 118.101 209.864C118.101 208.891 118.101 207.48 118.101 205.74C118.101 202.258 118.283 197.44 118.547 192.128C118.811 186.815 119.124 182.014 119.438 178.541C119.595 176.8 119.751 175.397 119.9 174.416C119.974 173.937 120.048 173.591 120.114 173.31C120.137 173.211 120.176 173.116 120.23 173.03C120.23 172.956 120.255 173.071 120.238 173.055Z" fill="#263238"/>
<path d="M211.132 6.42073C204.252 4.31708 197.108 10.4795 190.013 9.09361C185.723 8.26864 182.49 4.82856 178.67 2.70016C172.97 -0.484191 164.901 -1.00391 159.077 1.9577C153.253 4.9193 149.483 8.07065 148.699 14.5631C143.395 11.519 134.551 18.1929 131.54 24.6359C128.529 31.0788 129.28 37.728 130.987 44.6329C133.954 56.5421 139.229 67.7533 146.513 77.6314C147.157 78.5058 148.163 79.471 149.161 79.009C149.469 78.7936 149.722 78.5089 149.899 78.178C150.077 77.847 150.175 77.4789 150.184 77.1034C151.199 70.7924 150.399 64.3495 149.846 57.9808C149.293 51.6121 149.021 45.0454 151.042 39.0067C153.063 32.968 157.807 27.4077 164.076 26.1703C168.713 25.2546 173.522 26.756 177.639 29.0742C181.755 31.3923 185.377 34.4777 189.296 37.1093C193.214 39.7409 197.619 41.96 202.338 42.158C207.057 42.356 212.122 40.1451 214.127 35.8718C216.132 31.5985 213.888 25.5268 209.268 24.5451C211.419 24.3566 213.438 23.4245 214.976 21.9089C216.515 20.3933 217.477 18.389 217.698 16.2408C217.918 14.0925 217.384 11.9344 216.185 10.1377C214.987 8.341 213.2 7.01791 211.132 6.39598V6.42073Z" fill="#263238"/>
<path d="M189.906 117.089L189.238 103.453C189.238 103.453 207.238 100.004 206.834 81.8964C206.636 73.1601 204.755 55.1842 202.874 38.9407C201.905 30.5108 197.794 22.7559 191.362 17.2213C184.93 11.6867 176.649 8.77878 168.168 9.07712L166.419 9.13487C147.635 10.9003 138.626 27.845 140.912 46.5798L145.243 119.506C145.592 125.404 148.26 130.924 152.665 134.861C157.07 138.798 162.854 140.831 168.754 140.518C174.661 140.202 180.202 137.56 184.166 133.17C188.13 128.779 190.194 122.997 189.906 117.089Z" fill="#FFBE9D"/>
<path d="M189.263 103.453C189.263 103.453 177.853 104.781 165.429 97.5707C165.429 97.5707 171.468 110.407 189.469 108.138L189.263 103.453Z" fill="#EB996E"/>
<path d="M196.778 51.1914C196.805 51.8636 196.57 52.5202 196.122 53.0221C195.674 53.5241 195.048 53.832 194.377 53.8807C194.049 53.9184 193.717 53.8901 193.401 53.7975C193.084 53.7049 192.789 53.5499 192.533 53.3415C192.277 53.1332 192.065 52.8758 191.91 52.5845C191.755 52.2932 191.66 51.9737 191.63 51.6451C191.598 50.9722 191.831 50.3135 192.278 49.8095C192.725 49.3056 193.351 48.9962 194.023 48.9475C194.352 48.9087 194.685 48.9364 195.004 49.0289C195.322 49.1215 195.618 49.277 195.875 49.4863C196.132 49.6956 196.344 49.9543 196.5 50.2472C196.655 50.5401 196.749 50.8612 196.778 51.1914Z" fill="#263238"/>
<path d="M199.294 47.8998C198.981 48.2463 196.976 46.8686 194.196 46.9758C191.416 47.0831 189.428 48.5432 189.114 48.2133C188.957 48.0648 189.263 47.446 190.129 46.7696C191.301 45.8927 192.716 45.3999 194.179 45.3589C195.627 45.3018 197.055 45.7094 198.255 46.5221C199.137 47.1408 199.443 47.743 199.294 47.8998Z" fill="#263238"/>
<path d="M169.455 53.13C169.485 53.8037 169.251 54.4624 168.802 54.9661C168.354 55.4699 167.727 55.7789 167.055 55.8277C166.727 55.8653 166.395 55.837 166.078 55.7444C165.761 55.6518 165.466 55.4968 165.21 55.2885C164.954 55.0802 164.742 54.8228 164.587 54.5314C164.432 54.2401 164.337 53.9207 164.308 53.592C164.278 52.9184 164.512 52.2597 164.96 51.756C165.409 51.2522 166.036 50.9431 166.708 50.8944C167.036 50.8568 167.368 50.8851 167.685 50.9777C168.002 51.0703 168.297 51.2253 168.553 51.4336C168.809 51.6419 169.02 51.8993 169.175 52.1906C169.33 52.482 169.426 52.8014 169.455 53.13Z" fill="#263238"/>
<path d="M171.971 49.3764C171.666 49.7229 169.653 48.3453 166.873 48.4525C164.093 48.5597 162.105 50.0199 161.791 49.6899C161.635 49.5414 161.94 48.9227 162.806 48.2463C163.981 47.3692 165.399 46.8765 166.865 46.8356C168.31 46.7791 169.735 47.1868 170.932 47.9988C171.815 48.6257 172.128 49.2197 171.971 49.3764Z" fill="#263238"/>
<path d="M182.787 69.6292C182.787 69.4642 184.486 69.1095 187.274 68.6558C187.984 68.5568 188.652 68.3918 188.759 67.8968C188.789 67.1613 188.596 66.434 188.207 65.8096C187.481 64.1185 186.722 62.3366 185.921 60.4804C182.729 52.8825 180.394 46.6211 180.708 46.4561C181.021 46.2911 183.843 52.3875 187.027 59.9854C187.802 61.8553 188.537 63.6455 189.23 65.3559C189.706 66.1963 189.872 67.1773 189.7 68.1278C189.605 68.3817 189.455 68.6109 189.259 68.7981C189.063 68.9853 188.827 69.1256 188.57 69.2085C188.179 69.3291 187.774 69.3984 187.365 69.4147C184.552 69.7365 182.803 69.8107 182.787 69.6292Z" fill="#263238"/>
<path d="M174.669 71.8649C175.123 71.8154 175.238 74.8348 177.895 76.8889C180.551 78.9431 183.752 78.4976 183.793 78.9183C183.843 79.1081 183.1 79.5288 181.739 79.6113C179.961 79.7104 178.206 79.1722 176.789 78.0934C175.449 77.0582 174.562 75.5445 174.314 73.8696C174.158 72.6074 174.463 71.8484 174.669 71.8649Z" fill="#263238"/>
<path d="M171.757 35.1211C171.509 35.8801 168.721 35.6243 165.471 36.1275C162.22 36.6308 159.613 37.6207 159.16 36.9525C158.953 36.6308 159.382 35.9048 160.422 35.1376C161.81 34.1871 163.396 33.5666 165.061 33.3235C166.725 33.0805 168.423 33.2213 170.024 33.7352C171.229 34.1559 171.856 34.7581 171.757 35.1211Z" fill="#263238"/>
<path d="M197.991 39.9306C197.52 40.5741 195.582 39.9884 193.28 40.0379C190.978 40.0874 189.04 40.6154 188.561 39.9636C188.355 39.6502 188.644 39.0067 189.477 38.3797C190.586 37.6035 191.911 37.1964 193.264 37.2165C194.611 37.1688 195.94 37.5407 197.067 38.2807C197.9 38.9324 198.197 39.5677 197.991 39.9306Z" fill="#263238"/>
<path d="M142.883 59.9277C142.57 59.804 130.319 56.6856 131.144 69.0023C131.969 81.319 144.211 77.9779 144.211 77.6232C144.211 77.2684 142.883 59.9277 142.883 59.9277Z" fill="#FFBE9D"/>
<path d="M140.095 73.2343C140.037 73.2343 139.889 73.3993 139.534 73.589C139.043 73.853 138.468 73.9123 137.933 73.754C136.589 73.358 135.351 71.3616 135.145 69.1342C135.043 68.0783 135.178 67.0127 135.541 66.0159C135.629 65.6206 135.813 65.2529 136.076 64.9451C136.339 64.6372 136.674 64.3987 137.051 64.2505C137.294 64.1677 137.558 64.1727 137.798 64.2646C138.037 64.3566 138.237 64.5296 138.362 64.7537C138.552 65.0919 138.486 65.3394 138.552 65.3559C138.618 65.3724 138.808 65.1332 138.668 64.63C138.578 64.3291 138.389 64.0675 138.131 63.8875C137.772 63.6565 137.338 63.5737 136.919 63.6565C136.418 63.7895 135.96 64.0491 135.589 64.4103C135.218 64.7715 134.945 65.2221 134.799 65.7189C134.346 66.8259 134.171 68.0265 134.287 69.2167C134.535 71.6916 135.937 73.9438 137.785 74.3397C138.123 74.4148 138.473 74.4129 138.81 74.3344C139.147 74.2559 139.462 74.1026 139.732 73.886C140.095 73.5395 140.136 73.259 140.095 73.2343Z" fill="#EB996E"/>
<path d="M206.57 34.9809C202.598 36.1499 198.406 36.3594 194.337 35.5921C190.268 34.8248 186.44 33.1027 183.166 30.5673C178.629 26.987 175.048 21.7403 169.472 20.2306C167.572 19.7965 165.604 19.7443 163.684 20.0771C161.764 20.4099 159.928 21.1211 158.285 22.1692C155.006 24.2817 152.197 27.048 150.036 30.2951C153.855 39.3697 151.867 49.7229 149.821 59.3502C149.709 60.4433 149.236 61.4678 148.476 62.2623C147.058 63.4338 144.83 62.6336 143.527 61.3466C141.407 59.276 140.507 56.2814 139.889 53.394C138.356 46.8128 138.151 39.9922 139.286 33.331C140.448 26.6471 143.546 20.4512 148.196 15.5118C154.251 9.50622 162.405 6.09203 170.932 5.99175C179.415 5.95598 187.694 8.5943 194.592 13.5319C197.793 15.7758 200.763 18.4817 202.495 22.0207" fill="#263238"/>
<path d="M216.478 10.6033C216.53 10.9647 216.505 11.3331 216.404 11.684C216.142 12.7052 215.565 13.6176 214.754 14.2909C213.453 15.3312 211.856 15.932 210.192 16.0068C209.169 16.0973 208.139 16.0696 207.123 15.9243C205.955 15.7671 204.852 15.2967 203.93 14.5631C203.412 14.1529 202.994 13.6298 202.708 13.0337C202.422 12.4376 202.276 11.7841 202.28 11.123C202.346 10.4034 202.613 9.71677 203.05 9.14188C203.488 8.56699 204.079 8.1271 204.755 7.87266C205.457 7.58129 206.217 7.45702 206.974 7.50968C207.763 7.58793 208.511 7.89472 209.128 8.39239C209.747 8.91632 210.246 9.56791 210.591 10.3026C210.936 11.0373 211.117 11.8377 211.124 12.6492C211.154 14.3614 210.511 16.0171 209.334 17.2607C208.132 18.5327 206.615 19.4635 204.937 19.9583C201.538 21.0225 197.743 20.5111 194.328 19.1829C191.014 17.8205 187.869 16.0793 184.956 13.9939C182.272 12.0901 179.432 10.415 176.467 8.98636C173.796 7.71104 170.855 7.10244 167.896 7.21269C165.331 7.39947 162.838 8.14866 160.595 9.40709C157.325 11.2693 154.587 13.9392 152.643 17.1617C152.092 18.0166 151.588 18.9006 151.133 19.8099C150.993 20.1397 150.83 20.4594 150.646 20.7668C150.661 20.6754 150.689 20.5865 150.729 20.5028C150.786 20.3378 150.877 20.0821 151.017 19.7604C151.417 18.8105 151.883 17.8897 152.412 17.005C154.303 13.6809 157.041 10.9171 160.348 8.99461C162.652 7.68386 165.219 6.90321 167.863 6.70947C170.91 6.56719 173.946 7.17035 176.707 8.46664C179.716 9.90843 182.597 11.6029 185.319 13.5319C188.193 15.5827 191.29 17.3013 194.551 18.6549C197.892 19.9418 201.538 20.4368 204.772 19.4304C206.345 18.9385 207.762 18.0424 208.88 16.8317C209.945 15.7234 210.537 14.244 210.53 12.7069C210.53 11.9756 210.373 11.2527 210.068 10.5878C209.763 9.92295 209.319 9.33166 208.765 8.85437C208.229 8.4306 207.587 8.16255 206.908 8.0796C206.23 7.99666 205.543 8.10202 204.92 8.38414C204.322 8.59419 203.794 8.96877 203.399 9.46489C203.003 9.96102 202.756 10.5586 202.685 11.189C202.685 11.781 202.817 12.3654 203.073 12.8994C203.328 13.4333 203.7 13.9032 204.161 14.2744C205.024 14.9632 206.055 15.4102 207.148 15.5696C208.135 15.7237 209.137 15.7653 210.134 15.6933C211.771 15.6573 213.354 15.1027 214.655 14.1094C215.438 13.4661 216.012 12.6047 216.305 11.6345C216.384 11.2948 216.442 10.9503 216.478 10.6033Z" fill="#455A64"/>
<path d="M129.684 35.3686C130.926 35.7607 132.202 36.0369 133.495 36.1936C134.895 36.2689 136.295 36.0728 137.62 35.6161C139.248 35.0383 140.784 34.2298 142.182 33.2155C144.708 31.3306 146.552 28.6755 147.437 25.6506C147.747 24.3794 147.975 23.0899 148.122 21.7897C148.212 22.1397 148.245 22.5017 148.221 22.8622C148.218 23.8418 148.093 24.8172 147.85 25.7661C147.059 28.955 145.18 31.7678 142.537 33.7187C141.092 34.7817 139.492 35.6164 137.793 36.1936C136.393 36.6544 134.912 36.8146 133.446 36.6638C132.468 36.5517 131.511 36.2959 130.608 35.9048C130.271 35.7821 129.958 35.6006 129.684 35.3686Z" fill="#455A64"/>
<path d="M130.558 44.303C130.558 44.1875 132.027 44.4597 134.361 44.2452C137.396 43.9866 140.305 42.9176 142.785 41.15C145.266 39.3825 147.225 36.9812 148.46 34.1972C149.425 32.0605 149.64 30.6003 149.755 30.6251C149.778 30.9719 149.744 31.3201 149.656 31.6563C149.475 32.5842 149.198 33.4909 148.831 34.3622C147.669 37.2879 145.688 39.817 143.127 41.6471C140.565 43.4772 137.531 44.531 134.386 44.6824C133.444 44.7311 132.499 44.6869 131.565 44.5504C131.218 44.5215 130.879 44.4379 130.558 44.303Z" fill="#455A64"/>
<path d="M163.144 61.5281C163.103 61.5364 163.061 61.5364 163.019 61.5279C162.978 61.5195 162.939 61.5028 162.904 61.479C162.87 61.4551 162.84 61.4245 162.818 61.389C162.795 61.3535 162.78 61.3139 162.773 61.2724C162.759 61.2323 162.754 61.1899 162.757 61.1476C162.761 61.1054 162.773 61.0644 162.793 61.0272C162.813 60.9899 162.841 60.9573 162.874 60.9313C162.908 60.9054 162.946 60.8866 162.988 60.8764C163.069 60.8681 163.151 60.8897 163.217 60.937C163.284 60.9843 163.331 61.0543 163.35 61.1338C163.37 61.2134 163.359 61.2971 163.321 61.3696C163.283 61.4421 163.221 61.4984 163.144 61.5281Z" fill="#EB996E"/>
<path d="M168.457 60.1339C168.368 60.1333 168.282 60.1027 168.212 60.047C168.143 59.9913 168.094 59.9138 168.074 59.827C168.054 59.7402 168.064 59.6492 168.102 59.5687C168.14 59.4881 168.204 59.4228 168.284 59.3832C168.375 59.3759 168.466 59.4032 168.538 59.4598C168.609 59.5164 168.657 59.5981 168.672 59.6885C168.701 59.776 168.695 59.8715 168.655 59.9547C168.615 60.0379 168.544 60.1022 168.457 60.1339Z" fill="#EB996E"/>
<path d="M171.996 59.9195C171.823 59.9195 171.658 59.7462 171.608 59.474C171.559 59.2018 171.666 58.9543 171.831 58.9295C171.996 58.9048 172.169 59.1028 172.219 59.375C172.268 59.6472 172.161 59.8947 171.996 59.9195Z" fill="#EB996E"/>
<path d="M165.875 64.7702C165.71 64.7702 165.561 64.6959 165.561 64.5887C165.561 64.4814 165.693 64.3824 165.858 64.3824C166.023 64.3824 166.172 64.4567 166.172 64.5639C166.172 64.6712 166.048 64.7619 165.875 64.7702Z" fill="#EB996E"/>
<path d="M170.709 63.4668C170.623 63.4713 170.538 63.4419 170.474 63.3849C170.409 63.3278 170.369 63.2476 170.363 63.1615C170.354 63.1187 170.355 63.0747 170.363 63.032C170.372 62.9892 170.389 62.9487 170.414 62.9126C170.438 62.8765 170.47 62.8457 170.506 62.8219C170.543 62.7981 170.584 62.7817 170.627 62.7738C170.714 62.7715 170.798 62.8027 170.863 62.8611C170.927 62.9195 170.967 63.0005 170.973 63.0873C170.988 63.1725 170.968 63.26 170.919 63.331C170.869 63.4019 170.794 63.4507 170.709 63.4668Z" fill="#EB996E"/>
<path d="M195.969 59.5482C195.927 59.5565 195.884 59.5563 195.841 59.5474C195.799 59.5385 195.759 59.5213 195.724 59.4966C195.688 59.472 195.658 59.4405 195.635 59.404C195.612 59.3676 195.597 59.3268 195.59 59.2843C195.576 59.2437 195.571 59.2007 195.574 59.1579C195.577 59.1152 195.59 59.0735 195.61 59.0356C195.63 58.9978 195.657 58.9644 195.691 58.9376C195.724 58.9109 195.763 58.8913 195.804 58.88C195.889 58.8694 195.974 58.89 196.044 58.9381C196.114 58.9862 196.164 59.0583 196.184 59.1407C196.205 59.2232 196.194 59.3102 196.154 59.3854C196.115 59.4605 196.049 59.5185 195.969 59.5482Z" fill="#EB996E"/>
<path d="M199.575 59.0945C199.485 59.0866 199.4 59.0482 199.335 58.9857C199.27 58.9231 199.228 58.8402 199.217 58.7507C199.205 58.6611 199.224 58.5704 199.271 58.4933C199.319 58.4163 199.391 58.3577 199.476 58.3273C199.641 58.3273 199.797 58.4593 199.83 58.6655C199.851 58.7561 199.836 58.8512 199.788 58.931C199.74 59.0108 199.664 59.0693 199.575 59.0945Z" fill="#EB996E"/>
<path d="M192.769 59.7297C192.716 59.7348 192.664 59.7248 192.617 59.7007C192.571 59.6767 192.532 59.6397 192.506 59.5942C192.48 59.5487 192.467 59.4966 192.47 59.4443C192.473 59.3919 192.491 59.3415 192.522 59.299C192.553 59.2565 192.595 59.2239 192.644 59.2049C192.693 59.186 192.746 59.1816 192.797 59.1922C192.849 59.2029 192.896 59.2281 192.933 59.2649C192.971 59.3017 192.997 59.3486 193.008 59.3997C193.018 59.4749 192.998 59.5509 192.954 59.6123C192.909 59.6736 192.843 59.7156 192.769 59.7297Z" fill="#EB996E"/>
<path d="M195.582 63.2853C195.5 63.3132 195.41 63.3092 195.33 63.2741C195.251 63.2389 195.187 63.1752 195.153 63.0956C195.131 63.0577 195.117 63.0159 195.111 62.9725C195.105 62.9291 195.108 62.885 195.12 62.8428C195.131 62.8006 195.151 62.761 195.178 62.7265C195.205 62.692 195.238 62.6632 195.277 62.6418C195.358 62.6212 195.444 62.6295 195.52 62.6653C195.596 62.7011 195.658 62.7622 195.694 62.8382C195.73 62.9141 195.738 63.0002 195.718 63.0817C195.697 63.1633 195.649 63.2352 195.582 63.2853Z" fill="#EB996E"/>
<path d="M198.651 62.5511C198.614 62.546 198.578 62.5337 198.546 62.5147C198.514 62.4957 198.486 62.4705 198.463 62.4405C198.441 62.4105 198.425 62.3764 198.416 62.3402C198.407 62.3039 198.406 62.2662 198.411 62.2293C198.438 62.1589 198.49 62.1015 198.558 62.0691C198.626 62.0368 198.703 62.0321 198.774 62.0561C198.847 62.0663 198.914 62.105 198.958 62.1637C199.003 62.2224 199.023 62.2964 199.014 62.3696C198.989 62.4415 198.937 62.5009 198.869 62.5348C198.801 62.5688 198.723 62.5746 198.651 62.5511Z" fill="#EB996E"/>
<path d="M192.529 268.148L192.331 249.809C192.331 249.809 180.097 232.856 184.907 214.468C184.907 214.468 192.884 208.858 214.275 212.141C214.275 212.141 241.128 185.982 277.121 192.639C313.114 199.297 316.463 230.653 316.81 239.192C317.156 247.73 317.074 264.312 304.683 280.522L303.858 296.609C303.858 296.609 300.905 302.664 292.366 302.252C283.828 301.839 284.306 300.602 284.306 300.602C284.306 300.602 273.582 309.256 273.12 311.516C272.658 313.776 270.975 322.348 270.975 322.348C270.975 322.348 267.254 327.405 259.228 327.999C256.052 328.224 252.876 327.573 250.046 326.118C248.972 325.574 248.017 324.822 247.237 323.906C246.456 322.99 245.866 321.927 245.5 320.78C244.733 318.241 243.438 315.893 241.699 313.889C239.96 311.886 237.817 310.273 235.411 309.157L229.867 307.705C229.867 307.705 227.631 309.742 219.852 310.576C212.073 311.409 212.04 308.653 212.04 308.653C212.04 308.653 199.938 311.45 190.846 299.579C183.669 290.191 179.767 273.304 192.529 268.148Z" fill="#2C3F5B"/>
<path d="M267.139 269.204C267.26 269.008 267.395 268.82 267.543 268.643C267.815 268.28 268.22 267.752 268.723 267.059C269.738 265.681 271.156 263.644 272.724 261.012C274.548 257.927 276.131 254.705 277.459 251.376C278.21 249.496 278.911 247.491 279.53 245.387C280.149 243.284 280.668 241.007 280.124 238.788C279.469 236.637 278.064 234.793 276.164 233.59C274.413 232.416 272.537 231.439 270.571 230.678C267.241 229.364 263.741 228.53 260.176 228.203C257.773 227.975 255.353 227.975 252.95 228.203C252.125 228.278 251.44 228.36 250.986 228.426C250.761 228.473 250.532 228.498 250.301 228.5C250.522 228.43 250.749 228.378 250.978 228.344C251.415 228.253 252.075 228.137 252.933 228.038C255.344 227.738 257.78 227.691 260.201 227.898C263.818 228.17 267.374 228.979 270.752 230.299C272.751 231.058 274.658 232.04 276.436 233.227C278.423 234.485 279.888 236.419 280.561 238.672C281.139 241.04 280.561 243.399 279.959 245.503C279.357 247.606 278.614 249.627 277.847 251.525C276.499 254.865 274.882 258.09 273.013 261.169C271.751 263.241 270.374 265.24 268.888 267.158C268.36 267.843 267.931 268.354 267.642 268.692C267.492 268.879 267.323 269.05 267.139 269.204Z" fill="#263238"/>
<path d="M216.816 212.941C216.879 213.074 216.921 213.216 216.94 213.362C217.02 213.784 217.039 214.214 216.998 214.641C216.79 216.219 216.064 217.684 214.935 218.807C213.591 220.292 211.545 221.505 209.548 223.138C207.361 224.897 205.343 226.855 203.518 228.987C200.195 232.863 197.516 237.247 195.582 241.972C194.839 243.787 194.353 245.272 194.023 246.344C193.882 246.831 193.759 247.235 193.66 247.557C193.626 247.7 193.576 247.838 193.511 247.969C193.513 247.821 193.535 247.674 193.577 247.532C193.66 247.202 193.75 246.798 193.866 246.295C194.258 244.791 194.737 243.312 195.301 241.865C197.165 237.061 199.835 232.612 203.196 228.706C205.037 226.557 207.082 224.59 209.301 222.833C211.339 221.183 213.384 220.02 214.721 218.601C215.828 217.533 216.568 216.14 216.833 214.624C216.888 214.064 216.882 213.5 216.816 212.941Z" fill="#263238"/>
<g opacity="0.5">
<path opacity="0.5" d="M231.204 215.185L242.151 217.982C242.151 217.982 258.18 199.973 275.785 195.411L269.185 193.852C254.718 197.114 241.517 204.529 231.204 215.185Z" fill="black"/>
</g>
<path d="M272.212 194.545C257.816 197.782 244.718 205.252 234.602 215.994L231.204 215.169C231.204 215.169 246.729 198.133 269.193 193.835L272.212 194.545Z" fill="#2C3F5B"/>
<g opacity="0.7">
<path opacity="0.7" d="M272.212 194.545C257.816 197.782 244.718 205.252 234.602 215.994L231.204 215.169C231.204 215.169 246.729 198.133 269.193 193.835L272.212 194.545Z" fill="black"/>
</g>
<path d="M187.241 271.885C193.305 263.206 208.517 265.863 215.455 273.667C222.393 281.471 225.47 292.212 220.958 301.468C219.027 305.42 215.331 308.893 210.934 308.81C213.128 306.349 214.7 303.398 215.518 300.205C216.336 297.011 216.377 293.667 215.637 290.455C214.226 283.979 210.142 278.262 204.978 274.104C202.363 271.992 199.418 269.674 196.068 269.344C192.719 269.014 190.038 268.915 187.241 271.885Z" fill="#2C3F5B"/>
<g opacity="0.3">
<path opacity="0.3" d="M187.241 271.885C193.305 263.206 208.517 265.863 215.455 273.667C222.393 281.471 225.47 292.212 220.958 301.468C219.027 305.42 215.331 308.893 210.934 308.81C213.128 306.349 214.7 303.398 215.518 300.205C216.336 297.011 216.377 293.667 215.637 290.455C214.226 283.979 210.142 278.262 204.978 274.104C202.363 271.992 199.418 269.674 196.068 269.344C192.719 269.014 190.038 268.915 187.241 271.885Z" fill="black"/>
</g>
<g opacity="0.3">
<path opacity="0.3" d="M267.749 268.692C267.634 270.532 269.317 272.157 271.14 272.372C272.061 272.427 272.981 272.263 273.826 271.893C274.671 271.523 275.415 270.957 275.999 270.243C277.148 268.801 277.99 267.139 278.474 265.36C280.371 259.412 281.353 250.51 280.355 244.381C277.731 252.358 273.046 262.307 267.609 268.709" fill="black"/>
</g>
<g opacity="0.3">
<path opacity="0.3" d="M273.499 241.262C272.32 237.773 268.706 235.735 265.25 234.531C261.705 233.294 258.002 232.566 254.253 232.369C253.073 232.241 251.88 232.356 250.747 232.708C250.185 232.891 249.678 233.214 249.276 233.647C248.873 234.08 248.587 234.608 248.445 235.182C248.371 235.653 248.443 236.136 248.653 236.564C248.863 236.992 249.199 237.345 249.617 237.575C255.595 244.494 260.055 252.591 262.709 261.342C262.822 261.727 263.036 262.074 263.33 262.347C263.623 262.62 263.985 262.809 264.377 262.894C264.769 262.978 265.177 262.955 265.557 262.827C265.937 262.699 266.276 262.471 266.537 262.167C269.342 258.966 270.958 254.652 272.41 250.56C273.45 247.557 274.522 244.273 273.499 241.262Z" fill="black"/>
</g>
<g opacity="0.3">
<path opacity="0.3" d="M194.625 242.871C190.875 237.037 188.945 230.22 189.081 223.286C189.081 221.826 189.296 220.242 190.31 219.203C191.539 217.941 193.536 217.916 195.26 218.031C200.12 218.335 204.95 219.013 209.705 220.061C210.076 220.143 210.53 220.267 210.646 220.622C210.776 220.895 210.815 221.203 210.757 221.5C210.699 221.797 210.547 222.068 210.324 222.272C202.94 226.801 197.702 235.133 194.914 243.284" fill="black"/>
</g>
<path d="M185.426 215.119C185.442 215.535 185.423 215.952 185.369 216.365C185.303 217.19 185.229 218.32 185.179 219.747C184.929 225.52 185.654 231.293 187.324 236.824C187.885 238.631 188.471 240.223 189.032 241.543C189.593 242.863 190.079 243.91 190.434 244.62C190.643 244.981 190.815 245.362 190.945 245.758C190.696 245.426 190.475 245.073 190.286 244.702C189.881 244.009 189.353 242.97 188.759 241.658C188.063 240.125 187.457 238.552 186.944 236.948C186.334 234.975 185.843 232.966 185.476 230.934C184.853 227.248 184.651 223.503 184.874 219.772C184.965 218.345 185.08 217.182 185.204 216.39C185.237 215.96 185.312 215.535 185.426 215.119Z" fill="#FAFAFA"/>
<path d="M268.55 193.258C268.413 193.326 268.269 193.379 268.121 193.415L266.883 193.778C266.339 193.926 265.679 194.108 264.92 194.355C264.161 194.603 263.27 194.842 262.354 195.18C260.448 195.815 258.229 196.665 255.796 197.704C253.362 198.744 250.747 200.031 248.082 201.516C245.418 203.001 242.976 204.593 240.806 206.103C238.636 207.612 236.764 209.097 235.238 210.392C234.454 211.011 233.786 211.63 233.183 212.15C232.581 212.669 232.078 213.131 231.674 213.519L230.717 214.385C230.494 214.583 230.37 214.682 230.362 214.666C230.448 214.542 230.548 214.429 230.659 214.327L231.558 213.395C231.946 212.991 232.433 212.512 233.027 211.976C233.621 211.44 234.264 210.805 235.04 210.161C236.549 208.833 238.422 207.34 240.575 205.781C242.929 204.114 245.366 202.566 247.876 201.145C250.397 199.745 252.988 198.476 255.639 197.341C258.114 196.318 260.341 195.494 262.239 194.867C263.196 194.545 264.07 194.322 264.837 194.099C265.604 193.877 266.273 193.712 266.825 193.588L268.079 193.307C268.233 193.267 268.391 193.25 268.55 193.258Z" fill="#FAFAFA"/>
<path d="M278.177 236.849C278.111 236.923 276.865 235.653 274.473 234.127C273.07 233.24 271.596 232.47 270.068 231.825C268.202 231.044 266.269 230.434 264.293 230.002C260.681 229.209 256.969 228.983 253.288 229.333C250.466 229.622 248.759 230.092 248.734 230.002C249.123 229.856 249.523 229.74 249.93 229.655C251.015 229.374 252.117 229.168 253.23 229.037C256.946 228.587 260.712 228.771 264.367 229.581C266.374 230.022 268.336 230.651 270.224 231.462C271.766 232.131 273.243 232.94 274.638 233.879L275.463 234.448L276.18 235.017C276.571 235.307 276.941 235.624 277.286 235.966C277.606 236.236 277.904 236.531 278.177 236.849Z" fill="#FAFAFA"/>
<path d="M204.384 307.474C204.248 307.458 204.114 307.421 203.988 307.366C203.616 307.253 203.25 307.121 202.891 306.97C201.555 306.442 200.266 305.802 199.038 305.057C194.944 302.606 191.536 299.161 189.13 295.04C186.724 290.919 185.399 286.257 185.278 281.487C185.23 280.054 185.304 278.619 185.501 277.198C185.558 276.694 185.649 276.307 185.69 276.043C185.713 275.908 185.746 275.776 185.789 275.647C185.783 276.171 185.741 276.695 185.666 277.214C185.534 278.632 185.504 280.057 185.575 281.479C185.78 286.181 187.127 290.761 189.5 294.825C191.874 298.888 195.201 302.312 199.195 304.801C200.402 305.558 201.659 306.233 202.957 306.822C203.873 307.218 204.392 307.441 204.384 307.474Z" fill="#FAFAFA"/>
<g opacity="0.2">
<path opacity="0.2" d="M206.546 288.417C205.904 288.198 205.213 288.172 204.556 288.34C203.9 288.509 203.306 288.865 202.85 289.366C202.404 289.876 202.078 290.479 201.897 291.132C201.715 291.784 201.683 292.469 201.802 293.136C201.926 294.427 202.481 295.639 203.378 296.576C204.121 297.296 205.075 297.761 206.1 297.904C206.74 297.89 207.364 297.7 207.904 297.355C208.444 297.01 208.878 296.524 209.161 295.949C209.516 295.289 209.73 294.562 209.79 293.815C209.85 293.068 209.754 292.317 209.508 291.609C209.262 290.9 208.872 290.251 208.362 289.702C207.852 289.152 207.233 288.715 206.546 288.417Z" fill="black"/>
</g>
<path d="M205.267 288.244C204.672 288.961 204.27 289.818 204.098 290.733C203.925 291.648 203.989 292.593 204.281 293.477C204.574 294.361 205.087 295.156 205.772 295.788C206.456 296.42 207.29 296.867 208.195 297.088C207.824 297.42 207.38 297.661 206.898 297.788C206.416 297.916 205.911 297.927 205.424 297.822C204.212 297.419 203.171 296.621 202.468 295.556C201.765 294.491 201.44 293.22 201.546 291.948C201.598 290.905 202.022 289.916 202.742 289.16C203.441 288.552 204.341 288.226 205.267 288.244Z" fill="#2C3F5B"/>
<g opacity="0.4">
<path opacity="0.4" d="M205.267 288.244C204.672 288.961 204.27 289.818 204.098 290.733C203.925 291.648 203.989 292.593 204.281 293.477C204.574 294.361 205.087 295.156 205.772 295.788C206.456 296.42 207.29 296.867 208.195 297.088C207.824 297.42 207.38 297.661 206.898 297.788C206.416 297.916 205.911 297.927 205.424 297.822C204.212 297.419 203.171 296.621 202.468 295.556C201.765 294.491 201.44 293.22 201.546 291.948C201.598 290.905 202.022 289.916 202.742 289.16C203.441 288.552 204.341 288.226 205.267 288.244Z" fill="black"/>
</g>
<g opacity="0.2">
<path opacity="0.2" d="M194.386 283.723C193.766 283.516 193.099 283.494 192.467 283.658C191.834 283.822 191.263 284.165 190.822 284.647C190.391 285.139 190.076 285.721 189.9 286.351C189.725 286.98 189.693 287.641 189.807 288.285C189.944 289.522 190.479 290.68 191.333 291.585C192.054 292.278 192.975 292.725 193.965 292.864C194.581 292.851 195.182 292.668 195.701 292.337C196.221 292.005 196.639 291.536 196.91 290.983C197.252 290.345 197.458 289.643 197.515 288.922C197.572 288.201 197.479 287.475 197.242 286.792C197.004 286.108 196.628 285.481 196.137 284.95C195.645 284.419 195.049 283.996 194.386 283.707" fill="black"/>
</g>
<path d="M193.156 283.575C192.58 284.266 192.189 285.092 192.022 285.976C191.854 286.861 191.915 287.773 192.198 288.627C192.481 289.481 192.978 290.249 193.641 290.857C194.304 291.466 195.111 291.895 195.986 292.105C195.627 292.427 195.197 292.659 194.731 292.784C194.265 292.909 193.777 292.922 193.305 292.822C192.136 292.431 191.133 291.66 190.455 290.63C189.778 289.601 189.465 288.375 189.568 287.147C189.615 286.144 190.022 285.192 190.714 284.466C191.399 283.869 192.282 283.551 193.189 283.575" fill="#2C3F5B"/>
<g opacity="0.4">
<path opacity="0.4" d="M193.156 283.575C192.58 284.266 192.189 285.092 192.022 285.976C191.854 286.861 191.915 287.773 192.198 288.627C192.481 289.481 192.978 290.249 193.641 290.857C194.304 291.466 195.111 291.895 195.986 292.105C195.627 292.427 195.197 292.659 194.731 292.784C194.265 292.909 193.777 292.922 193.305 292.822C192.136 292.431 191.133 291.66 190.455 290.63C189.778 289.601 189.465 288.375 189.568 287.147C189.615 286.144 190.022 285.192 190.714 284.466C191.399 283.869 192.282 283.551 193.189 283.575" fill="black"/>
</g>
<path d="M225.685 261.02C225.685 261.02 225.767 261.02 225.8 260.962H225.858L225.685 261.02Z" fill="#263238"/>
<path d="M231.921 263.594C231.529 262.539 230.771 261.661 229.785 261.119C229.001 260.727 228.136 260.526 227.26 260.533H227.186C226.699 260.563 226.225 260.705 225.8 260.946C224.884 261.402 224.1 262.085 223.522 262.93C222.945 263.774 222.593 264.753 222.5 265.772C222.442 267.075 222.772 268.366 223.447 269.482C224.123 270.598 225.114 271.489 226.295 272.042C227.075 272.443 227.965 272.576 228.828 272.421C229.683 272.177 230.43 271.651 230.948 270.928C231.737 269.897 232.242 268.678 232.413 267.391C232.584 266.104 232.414 264.795 231.921 263.594Z" fill="#263238"/>
<path d="M200.185 252.994C200.219 252.974 200.255 252.957 200.293 252.944H200.343L200.185 252.994Z" fill="#263238"/>
<path d="M205.58 255.246C205.248 254.317 204.588 253.542 203.724 253.068C203.049 252.727 202.302 252.551 201.546 252.556H201.455C201.034 252.584 200.625 252.708 200.259 252.919C199.464 253.313 198.783 253.904 198.282 254.636C197.78 255.369 197.476 256.218 197.397 257.102C197.348 258.23 197.635 259.348 198.223 260.313C198.81 261.278 199.671 262.047 200.697 262.522C201.361 262.915 202.152 263.035 202.903 262.857C203.654 262.678 204.306 262.215 204.722 261.565C205.4 260.676 205.835 259.626 205.986 258.518C206.136 257.411 205.996 256.283 205.58 255.246Z" fill="#263238"/>
<path d="M207.23 269.031C207.404 269.042 207.576 269.075 207.742 269.13C208.228 269.253 208.707 269.402 209.177 269.575C210.914 270.211 212.548 271.098 214.028 272.207C216.243 273.845 218.127 275.888 219.58 278.229C221.342 281.104 222.514 284.301 223.028 287.633C223.554 290.96 223.515 294.351 222.913 297.665C222.476 300.408 221.291 302.977 219.489 305.09C218.25 306.489 216.644 307.515 214.853 308.051C214.207 308.263 213.527 308.356 212.848 308.323C213.51 308.233 214.164 308.09 214.803 307.895C216.533 307.308 218.075 306.268 219.266 304.883C220.988 302.796 222.114 300.282 222.525 297.607C223.102 294.335 223.127 290.989 222.599 287.708C222.096 284.43 220.955 281.283 219.242 278.443C217.828 276.131 215.999 274.101 213.846 272.454C212.396 271.345 210.807 270.43 209.119 269.732C207.94 269.27 207.23 269.072 207.23 269.031Z" fill="#263238"/>
<path d="M199.352 259.271C199.311 259.271 199.096 259.123 198.873 258.735C198.605 258.226 198.461 257.661 198.453 257.085C198.455 256.51 198.597 255.944 198.865 255.435C199.088 255.048 199.294 254.866 199.344 254.899C199.102 255.615 198.947 256.357 198.882 257.11C198.957 257.846 199.115 258.571 199.352 259.271Z" fill="#FAFAFA"/>
<path d="M224.224 268.387C224.175 268.387 223.969 268.197 223.787 267.76C223.565 267.18 223.505 266.549 223.614 265.937C223.708 265.327 223.971 264.755 224.373 264.287C224.686 263.924 224.95 263.792 224.983 263.833C224.554 264.507 224.234 265.245 224.035 266.019C223.964 266.814 224.028 267.614 224.224 268.387Z" fill="#FAFAFA"/>
<path d="M239.874 311.978C239.833 312.044 238.834 311.351 237.086 310.477C234.794 309.371 232.426 308.434 229.999 307.672C227.153 306.748 224.563 305.956 222.706 305.296C221.783 304.974 221.057 304.694 220.529 304.471C220.259 304.378 220.002 304.253 219.761 304.1C220.791 304.348 221.808 304.651 222.805 305.007C224.67 305.593 227.277 306.335 230.131 307.267C232.582 308.029 234.957 309.015 237.226 310.213C237.663 310.435 238.051 310.675 238.372 310.881C238.659 311.05 238.934 311.238 239.197 311.442C239.445 311.59 239.673 311.77 239.874 311.978Z" fill="#263238"/>
<path d="M298.405 285.406C298.183 285.813 297.93 286.202 297.646 286.569C297.151 287.303 296.367 288.335 295.369 289.572C292.714 292.764 289.83 295.758 286.74 298.531C283.135 301.831 279.777 304.628 277.401 306.74L274.597 309.214C274.27 309.54 273.916 309.838 273.541 310.105C273.825 309.744 274.14 309.407 274.481 309.099C275.108 308.464 276.04 307.573 277.203 306.484C279.53 304.314 282.854 301.443 286.443 298.185C289.517 295.421 292.419 292.47 295.13 289.349C296.161 288.145 296.978 287.147 297.514 286.445C297.784 286.077 298.082 285.729 298.405 285.406Z" fill="#263238"/>
<g opacity="0.2">
<path opacity="0.2" d="M284.381 300.684C288.819 301.047 293.859 299.686 297.011 296.56C298.592 294.95 299.66 292.906 300.079 290.688C300.497 288.471 300.248 286.178 299.362 284.103C296.771 287.798 293.851 291.725 290.287 294.745C288.043 296.65 286.55 298.96 284.381 300.709" fill="black"/>
</g>
<g opacity="0.5">
<path opacity="0.5" d="M268.574 196.929C274.349 205.426 286.187 208.116 291.912 216.629C294.132 219.929 295.212 223.823 296.285 227.651L309.484 275.276C310.029 264.955 307.545 254.742 305.071 244.703C302.64 234.803 300.201 224.903 297.753 215.004C297.35 212.789 296.545 210.667 295.377 208.742C294.074 206.87 292.135 205.558 290.246 204.288C283.465 199.734 276.486 195.098 268.533 193.283" fill="black"/>
</g>
<g opacity="0.3">
<path opacity="0.3" d="M228.085 222.651C228.448 223.806 226.864 225.382 224.398 227.337C223.152 228.311 221.7 229.424 220.1 230.637C218.499 231.85 216.8 233.178 215.01 234.613C213.219 236.049 211.602 237.476 210.06 238.738C208.517 240 207.172 241.262 205.935 242.277C203.518 244.298 201.662 245.527 200.598 244.933C199.533 244.34 199.608 241.997 201.018 238.713C201.862 236.809 202.934 235.014 204.211 233.368C207.336 229.316 211.357 226.044 215.958 223.806C217.831 222.896 219.806 222.212 221.84 221.769C225.379 221.084 227.739 221.546 228.085 222.651Z" fill="white"/>
</g>
<path d="M206.018 287.757C205.412 287.976 204.784 288.128 204.145 288.211C203.537 288.421 202.91 288.567 202.272 288.648C202.759 288.189 203.381 287.899 204.046 287.823C204.68 287.595 205.37 287.572 206.018 287.757Z" fill="#FAFAFA"/>
<path d="M193.495 283.212C192.921 283.348 192.34 283.45 191.754 283.517C190.822 283.723 190.104 284.111 190.055 284.004C190.005 283.896 190.632 283.327 191.655 283.096C191.954 282.992 192.271 282.949 192.586 282.969C192.902 282.989 193.211 283.071 193.495 283.212Z" fill="#FAFAFA"/>
<path d="M249.031 321.572C248.916 321.63 247.818 319.782 246.292 317.613C244.766 315.443 243.405 313.785 243.496 313.702C244.714 314.768 245.775 316.001 246.647 317.365C247.632 318.65 248.435 320.066 249.031 321.572Z" fill="#FAFAFA"/>
<path d="M199.888 234.993C200.004 235.067 198.378 237.468 196.968 240.685C195.557 243.902 194.881 246.715 194.749 246.682C194.767 246.051 194.878 245.425 195.079 244.826C195.455 243.349 195.955 241.906 196.572 240.512C197.183 239.115 197.909 237.771 198.741 236.494C199.058 235.947 199.443 235.442 199.888 234.993Z" fill="#FAFAFA"/>
<path d="M239.882 219.021C238.294 218.866 236.735 218.486 235.254 217.891C233.726 217.426 232.269 216.754 230.923 215.895C230.981 215.779 232.928 216.621 235.394 217.479C237.861 218.337 239.915 218.898 239.882 219.021Z" fill="#FAFAFA"/>
<path d="M304.229 205.649C302.3 208.282 299.464 210.107 296.268 210.772C297.715 210.122 299.128 209.398 300.5 208.602C301.792 207.681 303.037 206.696 304.229 205.649Z" fill="#EB996E"/>
<path d="M328.392 200.13C323.954 189.9 279.621 153.586 279.621 153.586L254.624 186.039C254.987 185.553 295.402 210.17 295.402 210.17L307.323 264.518L309.377 274.22C309.377 274.22 304.015 278.897 304.237 283.83C304.378 287.13 296.813 294.233 296.813 294.233C295.014 292.74 293.859 292.319 292.952 292.492L284.909 300.024L286.822 301.773C288.956 303.72 291.764 304.759 294.651 304.669L308.403 304.248C310.365 304.191 312.226 303.372 313.592 301.963C317.825 297.615 326.751 287.889 326.924 283.203C327.031 280.58 327.048 278.08 327.039 276.067C326.998 276.043 332.822 210.359 328.392 200.13Z" fill="#FFBE9D"/>
<path d="M315.226 287.039C314.999 287.245 314.74 287.412 314.459 287.534C313.955 287.815 313.18 288.145 312.281 288.64C311.245 289.238 310.33 290.024 309.583 290.958C308.638 292.136 307.527 293.17 306.283 294.027C303.984 295.557 301.254 296.309 298.496 296.172C298.012 296.171 297.532 296.087 297.077 295.924C296.893 295.86 296.732 295.742 296.615 295.587C296.497 295.431 296.428 295.244 296.417 295.05C296.409 294.928 296.431 294.807 296.482 294.696C296.532 294.585 296.609 294.489 296.705 294.415C296.846 294.332 296.936 294.349 296.936 294.357C296.936 294.365 296.862 294.357 296.755 294.481C296.684 294.554 296.631 294.643 296.601 294.74C296.571 294.838 296.564 294.941 296.582 295.042C296.605 295.197 296.673 295.343 296.777 295.461C296.881 295.58 297.016 295.666 297.167 295.71C297.601 295.839 298.052 295.895 298.504 295.875C301.185 295.927 303.817 295.162 306.052 293.68C307.262 292.847 308.348 291.848 309.278 290.711C310.065 289.754 311.032 288.961 312.124 288.376C313.064 287.906 313.848 287.625 314.376 287.386C314.649 287.246 314.933 287.13 315.226 287.039Z" fill="#EB996E"/>
<path d="M308.94 294.2C308.997 294.307 307.859 294.976 306.638 296.015C305.417 297.055 304.559 298.053 304.46 297.978C304.909 297.079 305.565 296.299 306.374 295.702C307.093 294.998 307.974 294.482 308.94 294.2Z" fill="#EB996E"/>
<path d="M314.475 271.687C314.475 271.811 313.262 271.885 311.934 272.512C310.606 273.139 309.765 274.022 309.674 273.931C310.193 273.153 310.914 272.531 311.76 272.133C312.606 271.735 313.545 271.575 314.475 271.67V271.687Z" fill="#EB996E"/>
<path d="M305.896 298.44C305.896 298.515 305.013 298.086 303.528 297.739C301.058 297.129 298.464 297.238 296.054 298.053C295.785 298.154 295.509 298.237 295.229 298.3C294.921 298.356 294.604 298.288 294.346 298.11L292.201 296.493C291.509 296.036 290.86 295.517 290.263 294.943C291.003 295.319 291.713 295.755 292.383 296.246L294.602 297.756C294.957 298.028 295.427 297.822 295.947 297.632C296.487 297.445 297.038 297.291 297.596 297.17C299.592 296.776 301.653 296.861 303.61 297.417C304.197 297.585 304.769 297.803 305.318 298.069C305.706 298.292 305.912 298.416 305.896 298.44Z" fill="#EB996E"/>
<path d="M212.617 172.386C207.329 170.877 204.986 170.225 204.986 170.225V167.8H207.09C209.202 167.8 212.238 165.168 212.238 165.168L216.75 158.263L217.328 153.833C216.849 148.372 210.266 150.533 210.266 150.533C209.953 148.628 201.521 146.714 195.186 145.534C193.064 145.137 190.88 145.217 188.793 145.768C186.706 146.319 184.767 147.326 183.117 148.718L177.037 153.85L158.821 169.779L111.799 209.501L80.8874 200.377C80.8874 200.377 71.0539 230.447 69.4617 241.221C66.3846 261.919 94.8375 275.713 107.41 265.062C117.161 256.813 174.034 195.535 183.455 185.38H183.529C189.304 184.645 199.104 178.78 199.104 178.78L204.128 179.374C204.128 179.374 217.476 181.923 219.06 179.308C220.248 177.287 217.905 173.896 212.617 172.386Z" fill="#FFBE9D"/>
<path d="M185.237 166.381C185.237 166.381 185.369 166.57 185.525 166.958C185.754 167.505 185.936 168.071 186.07 168.649C186.518 170.561 186.591 172.542 186.284 174.482C185.981 176.422 185.297 178.284 184.272 179.96C183.967 180.467 183.619 180.947 183.232 181.395C182.96 181.717 182.795 181.882 182.77 181.857C182.745 181.832 183.298 181.098 184.008 179.811C185.881 176.432 186.508 172.502 185.781 168.707C185.492 167.263 185.162 166.405 185.237 166.381Z" fill="#EB996E"/>
<path d="M188.644 149.535C188.812 149.492 188.983 149.461 189.155 149.444C189.502 149.395 189.98 149.329 190.649 149.271C192.492 149.069 194.353 149.088 196.192 149.329C197.469 149.517 198.711 149.889 199.88 150.434C201.238 151.053 202.437 151.972 203.386 153.124C204.468 154.405 205.066 156.025 205.077 157.702C205.062 158.591 204.838 159.464 204.425 160.251C203.986 161.045 203.43 161.768 202.775 162.396C201.542 163.589 200.19 164.653 198.741 165.572C198.056 166.034 197.33 166.431 196.572 166.76C196.179 166.917 195.757 166.987 195.334 166.966C195.115 166.956 194.899 166.899 194.703 166.8C194.507 166.7 194.334 166.56 194.196 166.389C193.942 166.05 193.816 165.632 193.841 165.209C193.85 164.824 193.919 164.443 194.047 164.079C194.285 163.405 194.61 162.764 195.013 162.173C195.74 161.108 196.713 160.233 197.85 159.624L197.9 159.913L192.274 158.841L190.748 158.527C190.567 158.501 190.389 158.454 190.22 158.387C190.402 158.387 190.584 158.403 190.764 158.436L192.298 158.676L197.949 159.608L198.387 159.682L197.999 159.897C196.92 160.498 195.999 161.346 195.31 162.371C194.928 162.938 194.626 163.555 194.41 164.203C194.27 164.51 194.206 164.847 194.223 165.184C194.24 165.522 194.338 165.85 194.509 166.141C194.765 166.378 195.088 166.527 195.433 166.569C195.778 166.61 196.128 166.541 196.431 166.372C197.16 166.055 197.856 165.668 198.51 165.218C199.934 164.313 201.261 163.266 202.47 162.091C203.101 161.536 203.615 160.862 203.985 160.107C204.354 159.352 204.571 158.532 204.623 157.694C204.616 156.114 204.059 154.585 203.048 153.371C202.138 152.259 200.991 151.366 199.69 150.756C198.557 150.211 197.351 149.833 196.11 149.634C194.297 149.368 192.46 149.302 190.632 149.436L189.131 149.527C188.969 149.55 188.806 149.553 188.644 149.535Z" fill="#EB996E"/>
<path d="M210.332 150.789C210.415 151.079 210.462 151.378 210.472 151.68C210.554 152.502 210.587 153.329 210.571 154.155C210.577 156.891 209.869 159.58 208.517 161.959C206.867 164.723 204.285 166.504 202.148 166.785C201.723 166.843 201.29 166.799 200.885 166.655C200.48 166.512 200.116 166.273 199.822 165.96C199.669 165.786 199.552 165.585 199.476 165.366C199.442 165.294 199.428 165.214 199.434 165.135C199.577 165.391 199.748 165.629 199.946 165.844C200.237 166.105 200.584 166.295 200.96 166.401C201.336 166.507 201.731 166.525 202.115 166.455C204.079 166.133 206.57 164.376 208.146 161.72C209.457 159.396 210.184 156.789 210.266 154.122C210.373 152.068 210.258 150.789 210.332 150.789Z" fill="#EB996E"/>
<path d="M198.659 174.35C198.609 174.292 199.038 173.921 199.55 173.178C200.206 172.224 200.615 171.121 200.738 169.969C200.843 168.813 200.653 167.649 200.185 166.587C199.83 165.762 199.484 165.316 199.542 165.275C199.943 165.584 200.258 165.99 200.457 166.455C201.039 167.544 201.286 168.78 201.167 170.008C201.048 171.237 200.569 172.403 199.789 173.36C199.5 173.778 199.112 174.118 198.659 174.35Z" fill="#EB996E"/>
<path d="M190.64 158.725C190.938 159.278 191.031 159.917 190.904 160.532C190.851 161.209 190.655 161.867 190.327 162.462C189.953 163.189 189.481 163.86 188.924 164.458C187.875 165.506 186.611 166.314 185.22 166.826C184.673 167.092 184.093 167.286 183.496 167.404C183.997 167.07 184.534 166.793 185.097 166.579C186.403 166 187.594 165.19 188.611 164.186C189.144 163.613 189.604 162.975 189.98 162.289C190.302 161.744 190.515 161.141 190.607 160.515C190.68 159.921 190.691 159.321 190.64 158.725Z" fill="#EB996E"/>
<path d="M225.718 161.15L202.511 173.797C202.511 173.797 214.927 176.874 226.204 188.795C232.335 195.288 237.133 202.92 240.328 211.259L263.427 195.881C263.427 195.881 250.994 167.717 225.718 161.15Z" fill="#455A64"/>
<path d="M206.603 173.327L225.338 162.602H225.396H225.454C228.766 163.494 231.952 164.806 234.932 166.504C238.32 168.464 241.48 170.794 244.353 173.451C247.54 176.373 250.461 179.573 253.082 183.012C255.923 186.679 258.443 190.585 260.613 194.685L260.704 194.858L260.539 194.966L259.327 195.791L241.491 207.711L241.276 207.851L241.186 207.62C238.664 201.38 235.197 195.565 230.907 190.379C227.497 186.314 223.554 182.729 219.184 179.72C216.333 177.742 213.293 176.051 210.109 174.672C208.987 174.193 208.113 173.847 207.511 173.657L206.834 173.426L206.603 173.343L206.843 173.393L207.535 173.591C208.146 173.781 209.029 174.086 210.159 174.54C213.389 175.87 216.474 177.529 219.365 179.489C223.78 182.481 227.763 186.065 231.204 190.14C235.542 195.343 239.049 201.187 241.598 207.464L241.293 207.373L259.12 195.436L260.333 194.611L260.259 194.883C258.102 190.808 255.602 186.925 252.785 183.276C250.184 179.853 247.285 176.667 244.123 173.756C241.265 171.11 238.125 168.786 234.759 166.826C231.811 165.126 228.659 163.807 225.379 162.899H225.495L206.603 173.327Z" fill="white"/>
<path d="M244.593 180.95C243.982 184.522 239.461 186.683 234.487 185.776C229.512 184.868 225.957 181.238 226.567 177.666C227.178 174.094 231.699 171.933 236.673 172.84C241.648 173.748 245.178 177.377 244.593 180.95Z" fill="#FAFAFA"/>
<path d="M233.777 182.096L232.952 182.987L232.029 182.088L232.804 181.263C232.14 180.566 231.658 179.716 231.402 178.788L232.961 178.112C233.169 178.974 233.611 179.762 234.239 180.388C234.875 181.007 235.287 181.057 235.526 180.793C236.351 179.902 232.68 177.567 234.561 175.488C235.386 174.614 236.64 174.457 238.026 175.488L238.851 174.614L239.775 175.513L238.991 176.338C239.512 176.913 239.9 177.594 240.13 178.334L238.595 179.052C238.389 178.342 238.012 177.694 237.498 177.163C236.855 176.544 236.417 176.544 236.17 176.816C235.394 177.641 239.032 180.009 237.168 182.071C236.401 182.921 235.147 183.086 233.777 182.096Z" fill="#455A64"/>
<path d="M211.899 170.349C211.899 170.349 215.835 172.345 212.056 175.299L206.281 173.055L211.899 170.349Z" fill="#FAFAFA"/>
<path d="M222.467 164.409C222.467 164.409 226.262 168.418 229.892 164.244L225.421 162.751L222.467 164.409Z" fill="#FAFAFA"/>
<path d="M239.024 202.258C239.024 202.258 244.131 198.133 247.109 203.71L241.408 207.521L239.024 202.258Z" fill="#FAFAFA"/>
<path d="M257.866 190.239C257.866 190.239 254.179 192.548 256.678 197.308L260.457 194.784L257.866 190.239Z" fill="#FAFAFA"/>
<path d="M244.197 203.619C244.187 203.924 244.088 204.219 243.911 204.468C243.734 204.717 243.488 204.908 243.204 205.017C242.919 205.127 242.609 205.15 242.311 205.084C242.013 205.018 241.742 204.866 241.53 204.646C241.318 204.427 241.176 204.15 241.121 203.85C241.066 203.55 241.101 203.24 241.221 202.96C241.341 202.679 241.541 202.441 241.796 202.273C242.05 202.106 242.349 202.017 242.654 202.019C242.861 202.022 243.064 202.066 243.254 202.148C243.443 202.231 243.615 202.35 243.758 202.498C243.902 202.647 244.014 202.823 244.089 203.015C244.165 203.207 244.201 203.413 244.197 203.619Z" fill="#455A64"/>
<path d="M259.673 193.778C259.662 194.08 259.562 194.372 259.385 194.618C259.209 194.864 258.964 195.053 258.682 195.161C258.399 195.269 258.091 195.291 257.796 195.226C257.5 195.16 257.231 195.008 257.021 194.79C256.811 194.573 256.669 194.298 256.614 194C256.559 193.703 256.593 193.395 256.711 193.117C256.83 192.838 257.027 192.601 257.28 192.434C257.532 192.267 257.828 192.177 258.13 192.177C258.337 192.18 258.541 192.224 258.73 192.307C258.92 192.389 259.091 192.508 259.234 192.657C259.378 192.805 259.49 192.981 259.566 193.173C259.641 193.366 259.677 193.571 259.673 193.778Z" fill="#455A64"/>
<path d="M227.797 164.252C227.797 164.821 226.972 165.283 226.023 165.283C225.074 165.283 224.257 164.821 224.257 164.252C224.257 163.683 225.082 163.221 226.031 163.221C226.98 163.221 227.797 163.675 227.797 164.252Z" fill="#455A64"/>
<path d="M212.716 172.807C212.797 173.162 212.765 173.534 212.625 173.87C212.485 174.206 212.244 174.49 211.936 174.684C211.627 174.877 211.266 174.97 210.903 174.949C210.539 174.928 210.191 174.795 209.906 174.568C209.622 174.341 209.415 174.031 209.314 173.681C209.213 173.331 209.223 172.959 209.344 172.615C209.464 172.271 209.688 171.974 209.984 171.763C210.281 171.552 210.636 171.438 211 171.438C211.408 171.398 211.816 171.519 212.136 171.774C212.456 172.03 212.664 172.401 212.716 172.807Z" fill="#455A64"/>
<path d="M226.939 171.924C226.939 172.799 225.85 173.508 224.505 173.508C223.16 173.508 222.079 172.824 222.079 171.924C222.079 171.025 223.168 170.341 224.513 170.341C225.858 170.341 226.939 171.099 226.939 171.924Z" fill="#FAFAFA"/>
<path d="M246.482 193.142C245.385 193.646 244.007 192.953 243.462 191.6C243.16 191.025 243.09 190.356 243.266 189.732C243.443 189.107 243.853 188.573 244.411 188.242C245.508 187.739 246.886 188.432 247.431 189.793C247.733 190.366 247.802 191.034 247.626 191.657C247.449 192.281 247.04 192.813 246.482 193.142Z" fill="#FAFAFA"/>
<path d="M212.246 165.168L221.774 175.224C221.774 175.224 225.586 179.588 228.151 177.526C230.717 175.464 227.112 171.619 226.353 170.497C225.594 169.375 216.255 158.049 216.255 158.049L212.246 165.168Z" fill="#FFBE9D"/>
<path d="M217.13 156.126C217.092 156.722 216.967 157.308 216.758 157.867C216.366 159.245 215.812 160.571 215.109 161.819C214.391 163.074 213.474 164.205 212.394 165.168C211.97 165.589 211.472 165.93 210.926 166.174C211.322 165.74 211.743 165.329 212.188 164.945C213.173 163.957 214.03 162.848 214.737 161.645C216.379 158.725 217.014 156.077 217.13 156.126Z" fill="#EB996E"/>
<path d="M128.512 195.378C128.379 195.538 128.23 195.685 128.067 195.815L126.739 197.003L121.789 201.301C117.59 204.906 111.757 209.864 105.29 215.268C98.8221 220.671 92.8081 225.547 88.4358 228.913C86.258 230.629 84.4678 231.973 83.2138 232.897L81.7619 233.928C81.6006 234.059 81.4264 234.172 81.2422 234.267C81.3893 234.121 81.5464 233.986 81.7124 233.862L83.1149 232.757C84.3358 231.8 86.093 230.422 88.2461 228.682C92.5607 225.209 98.4674 220.341 104.968 214.938C111.469 209.534 117.293 204.642 121.583 201.07L126.623 196.871L128.009 195.749C128.165 195.611 128.334 195.486 128.512 195.378Z" fill="#EB996E"/>
</svg>
