<svg width="414" height="309" viewBox="0 0 414 309" fill="none" xmlns="http://www.w3.org/2000/svg">
<path d="M414.647 271.511H0V271.718H414.647V271.511Z" fill="#EBEBEB"/>
<path d="M92.5991 278.469H65.1328V278.676H92.5991V278.469Z" fill="#EBEBEB"/>
<path d="M135.59 284.448H110.57V284.655H135.59V284.448Z" fill="#EBEBEB"/>
<path d="M78.8659 286.165H47.1454V286.372H78.8659V286.165Z" fill="#EBEBEB"/>
<path d="M373.1 285.717H359.914V285.924H373.1V285.717Z" fill="#EBEBEB"/>
<path d="M357.252 285.717H324.644V285.924H357.252V285.717Z" fill="#EBEBEB"/>
<path d="M232.476 278.361H207.324V278.568H232.476V278.361Z" fill="#EBEBEB"/>
<path d="M295.867 278.361H236.075V278.568H295.867V278.361Z" fill="#EBEBEB"/>
<path d="M196.543 234.525H36.4143C35.1599 234.522 33.9576 234.022 33.0713 233.135C32.1851 232.247 31.6873 231.044 31.6873 229.789V4.69379C31.6983 3.44656 32.2008 2.25399 33.0859 1.37514C33.971 0.496283 35.167 0.00212168 36.4143 -1.49012e-05H196.543C197.799 -1.49012e-05 199.003 0.498879 199.891 1.38691C200.779 2.27495 201.278 3.47939 201.278 4.73526V229.789C201.278 231.045 200.779 232.25 199.891 233.138C199.003 234.026 197.799 234.525 196.543 234.525ZM36.4143 0.165845C35.2149 0.168041 34.0653 0.64606 33.2179 1.49498C32.3706 2.34389 31.8947 3.49434 31.8947 4.69379V229.789C31.8947 230.989 32.3706 232.139 33.2179 232.988C34.0653 233.837 35.2149 234.315 36.4143 234.317H196.543C197.743 234.315 198.893 233.837 199.742 232.989C200.591 232.14 201.069 230.989 201.071 229.789V4.69379C201.069 3.49358 200.591 2.34315 199.742 1.49447C198.893 0.64579 197.743 0.168037 196.543 0.165845H36.4143Z" fill="#EBEBEB"/>
<path d="M375.928 234.525H215.791C214.536 234.522 213.332 234.023 212.445 233.135C211.557 232.248 211.058 231.044 211.056 229.789V4.69379C211.069 3.4458 211.573 2.25324 212.459 1.37462C213.346 0.495993 214.543 0.00209838 215.791 -1.49012e-05H375.928C377.173 0.00430116 378.367 0.499427 379.251 1.37805C380.134 2.25667 380.635 3.44799 380.646 4.69379V229.789C380.646 231.042 380.15 232.244 379.265 233.132C378.381 234.019 377.181 234.52 375.928 234.525ZM215.791 0.165845C214.591 0.168037 213.44 0.64579 212.591 1.49447C211.743 2.34315 211.265 3.49358 211.263 4.69379V229.789C211.265 230.989 211.743 232.14 212.591 232.989C213.44 233.837 214.591 234.315 215.791 234.317H375.928C377.128 234.315 378.278 233.837 379.127 232.989C379.976 232.14 380.453 230.989 380.456 229.789V4.69379C380.453 3.49358 379.976 2.34315 379.127 1.49447C378.278 0.64579 377.128 0.168037 375.928 0.165845H215.791Z" fill="#EBEBEB"/>
<path d="M346.081 167.219H315.19V271.511H346.081V167.219Z" fill="#E6E6E6"/>
<path d="M340.948 271.511H346.081V262.123H335.549L340.948 271.511Z" fill="#F0F0F0"/>
<path d="M220.335 167.219H189.444V271.511H220.335V167.219Z" fill="#E6E6E6"/>
<path d="M346.09 167.219H215.857V267.904H346.09V167.219Z" fill="#F0F0F0"/>
<path d="M342.101 171.681H219.846V199.296H342.101V171.681Z" fill="#E6E6E6"/>
<path d="M286.745 180.264H275.193C270.217 180.264 265.383 176.855 261.924 170.843H299.997C296.556 176.855 291.762 180.264 286.745 180.264Z" fill="#F0F0F0"/>
<path d="M220.999 271.511H215.857V262.123H226.389L220.999 271.511Z" fill="#F0F0F0"/>
<path d="M342.101 203.758H219.846V231.373H342.101V203.758Z" fill="#E6E6E6"/>
<path d="M286.745 212.299H275.193C270.217 212.299 265.383 208.899 261.924 202.879H299.997C296.556 208.933 291.762 212.299 286.745 212.299Z" fill="#F0F0F0"/>
<path d="M342.101 235.835H219.846V263.45H342.101V235.835Z" fill="#E6E6E6"/>
<path d="M286.745 244.41H275.193C270.217 244.41 265.383 241.001 261.924 234.989H299.997C296.556 241.001 291.762 244.41 286.745 244.41Z" fill="#F0F0F0"/>
<path d="M360.154 31.9693H226.754V96.7206H360.154V31.9693Z" fill="#F0F0F0"/>
<path d="M364.964 31.9693H229.001V96.7206H364.964V31.9693Z" fill="#F5F5F5"/>
<path d="M358.239 91.3385V37.3597L235.735 37.3597V91.3385H358.239Z" fill="white"/>
<path d="M319.743 144.347C322.148 119.468 323.815 79.0152 322.521 65.4977C322.496 65.2659 322.423 65.042 322.306 64.8405C322.188 64.6391 322.03 64.4646 321.841 64.3284C321.59 64.1447 321.292 64.0353 320.982 64.0127C320.672 63.99 320.362 64.0551 320.087 64.2003C319.812 64.3456 319.583 64.5653 319.427 64.8343C319.271 65.1033 319.194 65.4107 319.204 65.7216C319.428 72.4223 319.693 89.1657 318.267 118.05C317.554 132.422 316.534 142.265 317.238 144.347H319.743Z" fill="#F0F0F0"/>
<path d="M326.634 90.7746C332.124 83.709 343.486 78.1196 355.129 77.2654C359.698 76.9254 341.338 86.0393 333.775 95.145C327.911 102.211 321.335 113.854 319.146 120.206C320.431 107.095 321.136 97.8568 326.634 90.7746Z" fill="#F0F0F0"/>
<path d="M315.132 89.2487C309.451 81.3372 296.332 75.2419 282.134 74.5536C276.562 74.2882 297.767 84.2232 305.678 94.4069C311.823 102.31 318.117 115.413 319.859 122.603C320.282 107.692 320.821 97.1685 315.132 89.2487Z" fill="#F0F0F0"/>
<path d="M326.253 67.488C330.59 61.5917 340.168 56.7486 350.302 55.7618C354.283 55.372 338.808 63.2254 332.804 70.8715C328.135 76.7761 323.176 86.4374 321.683 91.6702C321.932 80.9475 321.924 73.3843 326.253 67.488Z" fill="#F0F0F0"/>
<path d="M317.52 68.6987C312.702 61.9897 301.598 56.8398 289.573 56.2593C284.854 56.0354 302.842 64.4445 309.476 73.0691C314.684 79.7615 320.025 90.8575 321.493 96.9445C321.874 84.3061 322.33 75.3994 317.52 68.6987Z" fill="#F0F0F0"/>
<path d="M323.342 117.378C326.477 112.933 333.517 109.193 341.039 108.298C343.991 107.949 332.614 114.045 328.268 119.792C324.893 124.253 321.352 131.501 320.323 135.407C320.332 127.438 320.216 121.823 323.342 117.378Z" fill="#F0F0F0"/>
<path d="M317.62 114.874C314.9 110.462 308.166 106.739 300.661 105.843C297.709 105.495 308.589 111.557 312.412 117.254C315.372 121.682 318.217 128.864 318.88 132.745C319.693 124.85 320.373 119.286 317.62 114.874Z" fill="#F0F0F0"/>
<path d="M318.723 167.219C324.719 167.219 329.67 165.967 330.01 159.988L331.013 142.68H306.441L307.444 159.988C307.784 165.967 312.735 167.219 318.723 167.219Z" fill="#E6E6E6"/>
<path d="M306.582 146.619H330.889C331.364 146.618 331.823 146.441 332.176 146.123C332.53 145.805 332.753 145.367 332.804 144.894L333.178 141.577C333.207 141.307 333.178 141.033 333.095 140.775C333.012 140.516 332.875 140.278 332.694 140.075C332.512 139.873 332.29 139.71 332.042 139.599C331.794 139.488 331.525 139.43 331.254 139.429H306.217C305.945 139.43 305.677 139.488 305.429 139.599C305.18 139.71 304.959 139.873 304.777 140.075C304.596 140.278 304.459 140.516 304.376 140.775C304.292 141.033 304.264 141.307 304.293 141.577L304.658 144.894C304.711 145.368 304.936 145.806 305.291 146.124C305.646 146.442 306.105 146.618 306.582 146.619Z" fill="#F0F0F0"/>
<path d="M228.263 167.219H211.968L216.794 131.501H228.263V167.219Z" fill="#E6E6E6"/>
<path d="M252.18 167.219H221.297L215.542 125.414H246.433L252.18 167.219Z" fill="#F0F0F0"/>
<path d="M256.302 167.219H224.167L218.42 125.414H250.555L256.302 167.219Z" fill="#F5F5F5"/>
<path d="M227.003 163.927L222.16 128.706H247.71L252.553 163.927H227.003Z" fill="white"/>
<path d="M241.408 155.8H235.321C234.791 155.801 234.279 155.609 233.88 155.262C233.48 154.914 233.22 154.433 233.148 153.909L231.141 139.322C231.097 139.011 231.12 138.695 231.208 138.395C231.297 138.094 231.449 137.816 231.655 137.58C231.863 137.346 232.119 137.158 232.405 137.029C232.69 136.901 233 136.834 233.314 136.834H239.401C239.93 136.834 240.441 137.026 240.84 137.373C241.239 137.721 241.5 138.2 241.574 138.724L243.58 153.312C243.623 153.622 243.599 153.938 243.509 154.237C243.419 154.537 243.266 154.815 243.061 155.05C242.855 155.286 242.601 155.475 242.315 155.604C242.03 155.734 241.721 155.8 241.408 155.8ZM233.944 153.793C233.99 154.119 234.152 154.417 234.4 154.634C234.648 154.85 234.966 154.97 235.296 154.97H241.383C241.577 154.971 241.77 154.93 241.947 154.85C242.125 154.77 242.283 154.652 242.411 154.506C242.539 154.358 242.633 154.185 242.689 153.997C242.745 153.81 242.76 153.613 242.735 153.42L240.728 138.841C240.682 138.514 240.52 138.216 240.272 138C240.023 137.783 239.705 137.664 239.376 137.663H233.289C233.094 137.661 232.901 137.702 232.724 137.782C232.546 137.862 232.388 137.98 232.261 138.127C232.13 138.272 232.034 138.444 231.978 138.63C231.922 138.817 231.908 139.013 231.937 139.205L233.944 153.793Z" fill="#F5F5F5"/>
<path d="M175.396 30.0619H52.3451V159.913H175.396V30.0619Z" fill="#E6E6E6"/>
<path d="M188.59 25.8574H44.3839C44.2231 25.8574 44.0639 25.8892 43.9154 25.951C43.767 26.0128 43.6322 26.1033 43.5189 26.2174C43.4056 26.3314 43.316 26.4668 43.2552 26.6157C43.1944 26.7645 43.1637 26.924 43.1648 27.0847C43.1648 27.4081 43.2932 27.7181 43.5218 27.9468C43.7505 28.1754 44.0605 28.3038 44.3839 28.3038H188.59C188.913 28.3038 189.223 28.1754 189.452 27.9468C189.681 27.7181 189.809 27.4081 189.809 27.0847C189.81 26.924 189.779 26.7645 189.719 26.6157C189.658 26.4668 189.568 26.3314 189.455 26.2174C189.342 26.1033 189.207 26.0128 189.058 25.951C188.91 25.8892 188.751 25.8574 188.59 25.8574Z" fill="#E6E6E6"/>
<path d="M180.629 30.0619H54.7915V159.913H180.629V30.0619Z" fill="#F0F0F0"/>
<path d="M173.314 152.607V37.3763L62.0976 37.3763V152.607H173.314Z" fill="#FAFAFA"/>
<path d="M87.3413 152.607L130.249 37.368H150.5L107.601 152.607H87.3413Z" fill="white"/>
<path d="M111.947 152.607L154.854 37.368H162.749L119.841 152.607H111.947Z" fill="white"/>
<path d="M173.314 152.598V37.368H172.385V152.598H173.314Z" fill="#E6E6E6"/>
<g opacity="0.6">
<path opacity="0.6" d="M59.079 209.87H43.6292L46.0756 23.6763H61.5337L59.079 209.87Z" fill="#F0F0F0"/>
<path opacity="0.6" d="M65.0997 209.87H53.0583L55.513 23.6763H67.5461L65.0997 209.87Z" fill="#E6E6E6"/>
<path opacity="0.6" d="M74.5287 209.87H59.079L61.5337 23.6763H76.9835L74.5287 209.87Z" fill="#F0F0F0"/>
<path opacity="0.6" d="M80.5494 209.87H68.5081L70.9628 23.6763H83.0042L80.5494 209.87Z" fill="#E6E6E6"/>
<path opacity="0.6" d="M89.9785 209.87H74.5288L76.9835 23.6763H92.4332L89.9785 209.87Z" fill="#F0F0F0"/>
</g>
<g opacity="0.6">
<path opacity="0.6" d="M178.074 209.87H186.807L187.976 23.6763H179.244L178.074 209.87Z" fill="#F0F0F0"/>
<path opacity="0.6" d="M174.674 209.87H181.475L182.652 23.6763H175.844L174.674 209.87Z" fill="#E6E6E6"/>
<path opacity="0.6" d="M169.342 209.87H178.074L179.244 23.6763H170.511L169.342 209.87Z" fill="#F0F0F0"/>
<path opacity="0.6" d="M165.942 209.87H172.742L173.92 23.6763H167.111L165.942 209.87Z" fill="#E6E6E6"/>
<path opacity="0.6" d="M160.61 209.87H169.342L170.511 23.6763H161.779L160.61 209.87Z" fill="#F0F0F0"/>
</g>
<path d="M207.324 308.962C296.127 308.962 368.116 304.759 368.116 299.574C368.116 294.39 296.127 290.187 207.324 290.187C118.521 290.187 46.5317 294.39 46.5317 299.574C46.5317 304.759 118.521 308.962 207.324 308.962Z" fill="#F5F5F5"/>
<path d="M236.034 52.9007C231.058 46.1669 232.211 40.2872 236.034 36.0578C240.802 30.7503 248.589 30.7917 253.781 33.5035C261.908 37.7412 263.658 56.3091 250.082 58.9297C245.265 57.2481 240.571 55.2336 236.034 52.9007Z" fill="#263238"/>
<path d="M252.197 34.6728C257.173 31.7454 255.788 26.0648 260.282 23.0627C266.535 18.9162 280.011 20.7158 275.799 31.082C271.586 41.4482 286.579 42.0453 282.226 52.3451C277.872 62.645 265.225 68.931 261.974 54.0037C259.544 42.8165 269.869 28.4034 261.535 29.9541C256.335 30.9161 254.602 36.2651 254.602 36.2651L252.197 34.6728Z" fill="#263238"/>
<path d="M239.832 78.5757C239.152 80.4582 238.414 82.1666 237.626 83.933C236.838 85.6994 235.968 87.3994 235.055 89.0995C233.219 92.6671 230.912 95.9723 228.197 98.9266C227.421 99.7538 226.568 100.506 225.651 101.174C224.744 101.817 223.778 102.373 222.765 102.833C220.9 103.667 218.955 104.312 216.96 104.757C213.181 105.629 209.311 106.05 205.433 106.009C204.998 106.002 204.58 105.837 204.257 105.545C203.934 105.254 203.727 104.855 203.676 104.423C203.624 103.991 203.731 103.554 203.976 103.195C204.221 102.835 204.589 102.577 205.01 102.468H205.093C208.562 101.657 211.977 100.629 215.318 99.391C216.889 98.8059 218.409 98.0931 219.863 97.2597C220.51 96.8884 221.126 96.464 221.704 95.9909C222.262 95.5234 222.779 95.0072 223.246 94.4484C224.314 93.1862 225.277 91.8382 226.124 90.418C227.019 88.9502 227.882 87.4326 228.678 85.8486C230.254 82.7139 231.746 79.3635 233.032 76.1459V76.0961C233.373 75.202 234.055 74.48 234.928 74.0889C235.801 73.6977 236.794 73.6695 237.688 74.0104C238.582 74.3513 239.304 75.0335 239.696 75.9067C240.087 76.78 240.115 77.7729 239.774 78.6669L239.832 78.5757Z" fill="#B55B52"/>
<path d="M238.754 72.4389C231.904 73.2185 228.131 83.4934 228.131 83.4934L235.147 93.3786C235.147 93.3786 243.44 83.9827 244.161 79.7865C244.882 75.4659 243.813 71.8501 238.754 72.4389Z" fill="#263238"/>
<path opacity="0.2" d="M235.006 78.725C237.303 77.282 239.807 78.0781 241.938 80.7568C242.379 81.5255 242.674 82.3689 242.809 83.2447C240.736 87.0014 235.138 93.3703 235.138 93.3703L231.929 88.8507C231.688 86.1804 233.521 79.6123 235.006 78.725Z" fill="black"/>
<path d="M206.685 102.833L201.519 100.046L201.378 106.78C201.378 106.78 204.828 107.526 207.108 105.685L206.685 102.833Z" fill="#B55B52"/>
<path d="M196.336 100.278L197.239 105.777L201.411 106.78L201.552 100.046L196.336 100.278Z" fill="#B55B52"/>
<path d="M222.375 88.1623L217.847 84.4471L186.998 130.796L191.567 134.512C196.775 138.774 207.896 131.858 216.446 119.054C224.996 106.249 227.583 92.4249 222.375 88.1623Z" fill="#363D4E"/>
<path opacity="0.1" d="M222.375 88.1623L217.847 84.4471L186.998 130.796L191.567 134.512C196.775 138.774 207.896 131.858 216.446 119.054C224.996 106.249 227.583 92.4249 222.375 88.1623Z" fill="black"/>
<path d="M212.659 114.097C220.889 101.089 222.98 87.6447 217.329 84.0695C211.678 80.4944 200.425 88.1419 192.195 101.151C183.965 114.159 181.874 127.603 187.525 131.178C193.176 134.754 204.429 127.106 212.659 114.097Z" fill="#363D4E"/>
<path d="M196.7 115.222L200.847 108.969C200.426 107.687 200.405 106.307 200.789 105.014C201.264 103.382 202 101.839 202.97 100.444C203.844 99.0346 204.989 97.8115 206.337 96.845C207.49 96.0821 208.476 95.8996 209.281 96.2977L210.293 94.7884L211.172 95.5099L210.176 97.0275C210.447 97.4499 210.627 97.9232 210.707 98.4182C210.787 98.9131 210.764 99.4192 210.641 99.9051C210.318 101.369 209.758 102.769 208.982 104.052L207.116 103.289C207.697 102.404 207.987 101.36 207.946 100.303L204.056 106.108C204.592 107.424 204.702 108.874 204.371 110.255C203.315 113.57 201.294 116.495 198.566 118.656C197.306 119.529 196.186 119.781 195.208 119.41L194.204 120.919L193.325 120.198L194.279 118.763C193.982 118.27 193.791 117.72 193.718 117.149C193.645 116.578 193.692 115.998 193.856 115.446C194.304 113.597 195.043 111.831 196.045 110.213L197.953 111.126C197.53 111.871 197.191 112.661 196.941 113.481C196.761 114.043 196.679 114.632 196.7 115.222ZM207.133 99.5154C206.671 99.5607 206.235 99.7524 205.889 100.063C204.927 100.858 204.215 101.915 203.841 103.106C203.67 103.613 203.621 104.153 203.7 104.682L207.133 99.5154ZM197.447 116.101C197.702 116.14 197.962 116.121 198.209 116.047C198.455 115.972 198.682 115.843 198.873 115.67C200.059 114.747 200.928 113.477 201.361 112.038C201.527 111.461 201.512 110.848 201.32 110.28L197.447 116.101Z" fill="white"/>
<path opacity="0.1" d="M216.487 99.8305C217.101 95.767 216.487 92.5078 214.563 90.9073C210.326 87.4326 201.295 93.0718 194.32 103.496C191.389 107.79 189.225 112.56 187.926 117.594C188.64 112.834 191.003 106.971 194.743 101.34C201.685 90.9156 210.749 85.2847 214.986 88.7511C217.275 90.6171 217.69 94.7718 216.487 99.8305Z" fill="black"/>
<path d="M276.611 254.436L269.645 255.099L266.096 238.87L273.062 238.207L276.611 254.436Z" fill="#B55B52"/>
<path d="M315.414 244.401L308.937 246.939L302.693 231.547L309.169 229.01L315.414 244.401Z" fill="#B55B52"/>
<path d="M307.055 243.755L314.153 240.222C314.276 240.161 314.416 240.146 314.548 240.18C314.68 240.213 314.796 240.293 314.875 240.404L318.474 245.621C318.565 245.756 318.626 245.909 318.653 246.07C318.68 246.23 318.672 246.395 318.629 246.552C318.587 246.71 318.511 246.856 318.407 246.981C318.303 247.107 318.173 247.208 318.026 247.279C315.538 248.473 314.444 249.062 311.317 250.596C309.393 251.55 305.106 253.797 302.452 255.116C299.798 256.435 298.355 253.88 299.342 253.093C303.762 249.568 305.222 246.906 306.192 244.675C306.363 244.277 306.668 243.951 307.055 243.755Z" fill="#263238"/>
<path d="M268.285 251.484H276.661C276.811 251.484 276.956 251.534 277.074 251.625C277.193 251.717 277.278 251.845 277.316 251.99L279.141 258.624C279.186 258.78 279.194 258.946 279.164 259.106C279.134 259.266 279.067 259.417 278.967 259.546C278.868 259.676 278.74 259.78 278.592 259.85C278.445 259.92 278.284 259.955 278.121 259.951C275.193 259.901 273.792 259.951 270.11 259.951H258.864C255.804 259.951 255.133 256.849 256.376 256.576C262.057 255.315 265.333 253.582 267.083 251.932C267.41 251.632 267.841 251.471 268.285 251.484Z" fill="#263238"/>
<path opacity="0.2" d="M266.104 238.878L267.929 247.238H275.044L273.07 238.207L266.104 238.878Z" fill="black"/>
<path opacity="0.2" d="M309.169 229.018L302.693 231.556L305.919 239.484L312.387 236.946L309.169 229.018Z" fill="black"/>
<path d="M260.017 65.4313C265.557 64.7928 269.139 67.4299 269.388 72.9613C270.118 92.4581 272.274 96.9445 275.533 107.029L247.909 114.716C238.091 93.4532 234.641 83.427 233.546 78.7084C233.318 77.6117 233.456 76.4706 233.938 75.4597C234.421 74.4488 235.221 73.6237 236.216 73.1106C243.569 69.0147 251.657 66.4054 260.017 65.4313Z" fill="#263238"/>
<path d="M251.616 52.3617C251.948 56.616 253.051 63.9718 256.592 65.9207C256.592 65.9207 256.07 68.5495 246.914 77.3152C241.267 72.555 244.153 69.3622 244.153 69.3622C248.357 67.0319 247.37 63.9967 245.712 61.0693L251.616 52.3617Z" fill="#B55B52"/>
<path opacity="0.2" d="M250.978 53.3154C251.582 55.7331 251.667 58.2515 251.227 60.7044C250.911 62.363 249.104 63.6235 247.08 64.345C246.804 63.1929 246.351 62.0906 245.737 61.0776L250.978 53.3154Z" fill="black"/>
<path d="M253.242 44.3258C254.593 51.2007 255.315 54.0783 252.811 58.4239C249.037 64.9919 240.296 65.1577 236.913 58.8219C233.869 53.1247 232.161 42.8414 238.082 38.413C239.384 37.4317 240.916 36.7997 242.531 36.5771C244.147 36.3545 245.792 36.5487 247.311 37.1412C248.83 37.7338 250.173 38.7049 251.211 39.9624C252.249 41.2199 252.948 42.722 253.242 44.3258Z" fill="#B55B52"/>
<path d="M256.833 48.5138C256.934 49.1766 256.902 49.8529 256.74 50.5035C256.577 51.154 256.288 51.7659 255.887 52.3036C254.809 53.7383 253.184 53.0417 252.57 51.4743C252.023 50.048 251.915 47.5767 253.441 46.7142C253.775 46.5311 254.149 46.4338 254.53 46.4312C254.91 46.4285 255.286 46.5206 255.622 46.6991C255.958 46.8775 256.245 47.1368 256.456 47.4536C256.668 47.7703 256.797 48.1347 256.833 48.5138Z" fill="#B55B52"/>
<path d="M247.213 40.6852C246.956 43.314 249.062 47.8088 253.018 48.8537C257.115 44.1433 254.411 37.6831 250.646 37.5505C246.881 37.4178 247.213 40.6852 247.213 40.6852Z" fill="#263238"/>
<path d="M241.69 33.5201C235.644 33.7938 229.159 36.489 231.406 45.9595C236.681 44.8566 251.359 43.2146 252.487 39.4496C251.003 34.6148 245.654 33.3377 241.69 33.5201Z" fill="#263238"/>
<path d="M247.909 114.716C247.909 114.716 246.301 170.511 250.787 191.567C255.439 213.477 265.947 244.791 265.947 244.791L275.815 244.153C275.815 244.153 269.438 203.21 267.522 186.318C264.819 163.031 268.177 109.069 268.177 109.069L247.909 114.716Z" fill="#363D4E"/>
<path opacity="0.2" d="M261.808 132.165C262.256 127.106 266.071 128.076 266.925 134.926C266.552 145.707 266.287 158.221 266.502 169.176C262.389 161.14 260.788 143.675 261.808 132.165Z" fill="black"/>
<path d="M277.067 244.791L265.184 245.596L263.533 240.023L276.396 238.663L277.067 244.791Z" fill="#263238"/>
<path d="M257.654 112.005C257.654 112.005 266.063 158.777 277.482 183.946C286.704 204.272 303.414 237.021 303.414 237.021L312.478 233.629C312.478 233.629 298.306 196.452 293.181 182.155C280.418 146.495 287.376 124.85 275.533 107.029L257.654 112.005Z" fill="#363D4E"/>
<path d="M313.548 234.491L303.091 238.132L300.113 232.775L312.561 229.69L313.548 234.491Z" fill="#263238"/>
<path d="M275.492 105.32L277.432 107.452C277.582 107.618 277.432 107.875 277.084 107.958L248.117 116.027C247.868 116.093 247.627 116.027 247.569 115.877L246.632 113.472C246.566 113.307 246.74 113.099 247.014 113.025L274.986 105.238C275.07 105.205 275.161 105.196 275.25 105.21C275.339 105.225 275.422 105.263 275.492 105.32Z" fill="#263238"/>
<path d="M272.606 109.467L273.36 109.251C273.51 109.21 273.601 109.102 273.559 109.011L272.316 105.901C272.316 105.81 272.133 105.768 271.984 105.81L271.229 106.017C271.08 106.017 270.989 106.166 271.022 106.258L272.274 109.376C272.307 109.467 272.456 109.508 272.606 109.467Z" fill="#363D4E"/>
<path d="M250.298 115.67L251.052 115.463C251.193 115.463 251.293 115.313 251.251 115.222L250.007 112.112C250.007 112.021 249.817 111.98 249.667 112.021L248.921 112.228C248.772 112.228 248.681 112.378 248.714 112.469L249.958 115.587C249.999 115.678 250.148 115.712 250.298 115.67Z" fill="#363D4E"/>
<path d="M261.452 112.568L262.206 112.361C262.356 112.32 262.447 112.212 262.405 112.121L261.162 109.002C261.162 108.911 260.971 108.87 260.822 108.911L260.075 109.119C259.926 109.119 259.835 109.276 259.868 109.367L261.12 112.477C261.153 112.568 261.302 112.61 261.452 112.568Z" fill="#363D4E"/>
<path d="M243.473 48.9284C243.614 49.484 243.473 50.0065 243.083 50.0977C242.693 50.1889 242.312 49.824 242.171 49.2684C242.03 48.7128 242.171 48.1986 242.56 48.0991C242.95 47.9996 243.332 48.3562 243.473 48.9284Z" fill="#263238"/>
<path d="M237.245 50.5372C237.394 51.0846 237.245 51.607 236.855 51.7065C236.465 51.8061 236.084 51.4246 235.943 50.8772C235.802 50.3299 235.943 49.7992 236.332 49.7079C236.722 49.6167 237.104 49.9816 237.245 50.5372Z" fill="#263238"/>
<path d="M236.498 49.6997L235.08 49.6582C235.08 49.6582 236.026 50.5207 236.498 49.6997Z" fill="#263238"/>
<path d="M239.144 51.0514C238.981 52.4363 238.63 53.7923 238.099 55.0818C238.432 55.2092 238.788 55.2619 239.144 55.2361C239.499 55.2103 239.845 55.1067 240.155 54.9325L239.144 51.0514Z" fill="#A02724"/>
<path d="M242.594 56.5994C242.562 56.5938 242.532 56.5791 242.509 56.557C242.485 56.5349 242.469 56.5064 242.461 56.475C242.455 56.4543 242.453 56.4325 242.455 56.4111C242.458 56.3896 242.465 56.3689 242.476 56.3502C242.487 56.3316 242.501 56.3153 242.519 56.3026C242.536 56.2898 242.556 56.2807 242.577 56.2759C243.267 56.1126 243.908 55.7886 244.448 55.3303C244.989 54.872 245.413 54.2924 245.687 53.6388C245.693 53.6172 245.704 53.5971 245.719 53.5799C245.733 53.5626 245.751 53.5485 245.771 53.5384C245.792 53.5283 245.814 53.5225 245.836 53.5212C245.859 53.5199 245.881 53.5232 245.902 53.531C245.943 53.546 245.976 53.5756 245.996 53.6139C246.016 53.6522 246.021 53.6965 246.01 53.7383C245.725 54.4445 245.275 55.0724 244.698 55.5699C244.121 56.0675 243.434 56.4204 242.693 56.5994C242.661 56.609 242.626 56.609 242.594 56.5994Z" fill="#263238"/>
<path d="M244.692 46.4405C244.633 46.4329 244.577 46.4068 244.534 46.3659C244.212 46.0963 243.831 45.9075 243.421 45.8152C243.011 45.7229 242.585 45.7297 242.179 45.8351C242.094 45.8615 242.003 45.8536 241.924 45.8134C241.845 45.7731 241.784 45.7035 241.756 45.6195C241.74 45.5782 241.734 45.5342 241.736 45.4901C241.738 45.4461 241.749 45.4029 241.768 45.3633C241.788 45.3237 241.815 45.2884 241.849 45.2598C241.882 45.2311 241.921 45.2096 241.963 45.1966C242.476 45.0573 243.015 45.0433 243.535 45.1559C244.055 45.2685 244.539 45.5043 244.949 45.8434C245.004 45.8905 245.043 45.9542 245.06 46.025C245.076 46.0959 245.07 46.1702 245.041 46.237C245.012 46.3038 244.963 46.3596 244.9 46.3963C244.837 46.4329 244.764 46.4484 244.692 46.4405Z" fill="#263238"/>
<path d="M233.538 48.4142H233.471C233.43 48.4002 233.392 48.3782 233.359 48.3493C233.326 48.3204 233.299 48.2853 233.28 48.246C233.26 48.2066 233.249 48.1639 233.246 48.1202C233.244 48.0765 233.25 48.0327 233.264 47.9913C233.426 47.4848 233.707 47.0245 234.083 46.6492C234.46 46.274 234.921 45.9948 235.429 45.8351C235.471 45.824 235.515 45.8213 235.559 45.8274C235.602 45.8334 235.644 45.8481 235.682 45.8705C235.72 45.8928 235.753 45.9225 235.779 45.9577C235.805 45.9929 235.824 46.033 235.835 46.0756C235.855 46.1625 235.84 46.2537 235.794 46.3297C235.747 46.4057 235.672 46.4604 235.586 46.482C235.192 46.6166 234.836 46.8433 234.548 47.1434C234.259 47.4434 234.046 47.8081 233.927 48.2069C233.899 48.2833 233.844 48.3466 233.772 48.3848C233.7 48.4231 233.617 48.4335 233.538 48.4142Z" fill="#263238"/>
<path d="M265.996 78.4845C263.84 82.9295 261.601 87.2916 259.238 91.6288C258.06 93.8015 256.882 95.9743 255.63 98.1139C254.378 100.253 253.142 102.401 251.658 104.549C251.318 105.08 250.895 105.644 250.497 106.208L250.348 106.407L250.273 106.515L250.148 106.672C249.974 106.888 249.8 107.07 249.626 107.253C249.309 107.574 248.968 107.871 248.606 108.14C247.412 109.013 246.114 109.735 244.741 110.288C242.32 111.266 239.824 112.048 237.278 112.627C232.403 113.753 227.453 114.527 222.467 114.94L221.903 111.407C224.216 110.794 226.572 110.147 228.885 109.475C231.199 108.803 233.496 108.09 235.735 107.311C237.916 106.576 240.046 105.701 242.113 104.69C242.984 104.261 243.805 103.735 244.559 103.123C244.683 103.02 244.796 102.906 244.899 102.783C244.929 102.746 244.957 102.707 244.982 102.667L245.164 102.385C245.455 101.929 245.753 101.497 246.052 100.983C247.229 99.0012 248.39 96.8782 249.518 94.7552L252.877 88.3116L259.511 75.3083L265.996 78.4845Z" fill="#B55B52"/>
<path d="M224.175 111.441L219.29 109.566L219.705 116.458C219.705 116.458 223.545 116.458 225.319 114.094L224.175 111.441Z" fill="#B55B52"/>
<path d="M215.451 109.765L214.406 114.832L219.705 116.458L219.29 109.566L215.451 109.765Z" fill="#B55B52"/>
<path d="M259.984 68.9973C257.256 70.2496 254.088 81.586 254.088 81.586L265.905 82.9295C265.905 82.9295 268.194 77.423 267.73 74.5951C267.033 70.0754 263.094 67.5709 259.984 68.9973Z" fill="#263238"/>
<path d="M303.522 245.778C303.476 245.7 303.44 245.616 303.414 245.529C303.376 245.437 303.363 245.335 303.378 245.236C303.392 245.137 303.434 245.043 303.497 244.965C304.069 244.269 306.607 244.551 306.889 244.584C306.921 244.586 306.953 244.599 306.978 244.619C307.003 244.64 307.021 244.668 307.03 244.7C307.04 244.731 307.041 244.764 307.032 244.795C307.024 244.826 307.005 244.854 306.98 244.874C306.259 245.48 304.915 246.45 304.053 246.201C303.939 246.172 303.833 246.119 303.742 246.046C303.651 245.973 303.576 245.882 303.522 245.778ZM306.449 244.874C305.429 244.791 304.061 244.808 303.754 245.173C303.731 245.212 303.718 245.256 303.718 245.301C303.718 245.347 303.731 245.391 303.754 245.43C303.778 245.535 303.829 245.632 303.902 245.712C303.974 245.792 304.066 245.852 304.169 245.886C304.625 246.019 305.471 245.645 306.466 244.874H306.449Z" fill="#363D4E"/>
<path d="M304.144 243.489C304.112 243.429 304.087 243.365 304.069 243.299C304.035 243.17 304.045 243.034 304.097 242.912C304.15 242.79 304.242 242.69 304.359 242.627C304.467 242.556 304.589 242.51 304.717 242.492C304.844 242.473 304.974 242.482 305.098 242.519C306.084 242.784 306.997 244.601 307.038 244.675C307.053 244.7 307.06 244.729 307.06 244.758C307.06 244.787 307.053 244.816 307.038 244.841C307.021 244.865 306.999 244.884 306.973 244.897C306.947 244.91 306.918 244.917 306.889 244.916C305.834 244.781 304.861 244.275 304.144 243.489ZM306.557 244.493C306.217 243.896 305.587 242.992 305.006 242.834C304.93 242.81 304.85 242.803 304.771 242.814C304.691 242.826 304.616 242.855 304.55 242.9C304.368 243.017 304.368 243.124 304.393 243.199C304.517 243.68 305.744 244.352 306.582 244.526L306.557 244.493Z" fill="#363D4E"/>
<path d="M264.545 252.86C263.965 252.907 263.385 252.771 262.886 252.471C262.755 252.376 262.648 252.251 262.575 252.107C262.501 251.963 262.463 251.803 262.464 251.641C262.452 251.553 262.465 251.464 262.502 251.383C262.538 251.303 262.597 251.234 262.671 251.185C263.425 250.671 266.278 251.965 266.817 252.23C266.85 252.245 266.877 252.27 266.895 252.301C266.912 252.333 266.92 252.368 266.917 252.404C266.912 252.439 266.897 252.471 266.873 252.496C266.849 252.521 266.818 252.539 266.784 252.545C266.051 252.728 265.3 252.834 264.545 252.86ZM263.21 251.417C263.095 251.411 262.979 251.436 262.878 251.492C262.878 251.492 262.812 251.55 262.82 251.65C262.822 251.758 262.85 251.865 262.9 251.961C262.95 252.058 263.022 252.141 263.11 252.205C263.6 252.578 264.769 252.628 266.262 252.346C265.306 251.884 264.285 251.57 263.235 251.417H263.21Z" fill="#363D4E"/>
<path d="M266.826 252.578H266.759C265.814 252.197 263.906 250.663 264.014 249.875C264.014 249.701 264.155 249.485 264.586 249.435C266.245 249.236 266.958 252.263 266.991 252.388C266.997 252.418 266.994 252.449 266.984 252.478C266.974 252.507 266.956 252.533 266.933 252.553C266.901 252.573 266.863 252.582 266.826 252.578ZM264.744 249.742H264.628C264.454 249.742 264.363 249.817 264.346 249.9C264.288 250.356 265.607 251.558 266.569 252.089C266.345 251.368 265.748 249.742 264.744 249.742Z" fill="#363D4E"/>
<path d="M242.726 48.0991H241.3C241.3 48.0991 242.254 48.9284 242.726 48.0991Z" fill="#263238"/>
<path d="M245.985 259.959H291.364C291.677 259.959 291.976 260.083 292.197 260.304C292.418 260.525 292.542 260.824 292.542 261.137V264.968H244.816V261.137C244.816 260.826 244.939 260.528 245.158 260.307C245.377 260.086 245.675 259.961 245.985 259.959Z" fill="#263238"/>
<path d="M292.948 277.648H245.222V282.649H292.948V277.648Z" fill="#263238"/>
<path opacity="0.5" d="M292.948 277.648H261.394V282.649H292.948V277.648Z" fill="black"/>
<path d="M265.988 264.96L260.622 298.546C260.577 298.822 260.436 299.074 260.224 299.256C260.011 299.438 259.741 299.539 259.461 299.541H256.833C256.663 299.541 256.495 299.504 256.341 299.433C256.187 299.361 256.05 299.257 255.939 299.128C255.829 298.999 255.748 298.848 255.702 298.684C255.656 298.521 255.645 298.349 255.672 298.181L260.987 264.927L265.988 264.96Z" fill="#263238"/>
<path opacity="0.5" d="M265.988 264.96L265.582 267.514H260.573L260.987 264.96H265.988Z" fill="black"/>
<path d="M249.817 264.96L244.451 298.546C244.406 298.822 244.265 299.074 244.053 299.256C243.84 299.438 243.57 299.539 243.29 299.541H240.661C240.491 299.541 240.324 299.504 240.169 299.433C240.015 299.361 239.878 299.257 239.768 299.128C239.658 298.999 239.577 298.848 239.531 298.684C239.484 298.521 239.474 298.349 239.5 298.181L244.816 264.927L249.817 264.96Z" fill="#263238"/>
<path d="M297.85 298.214L292.542 264.96H287.566L292.907 298.546C292.95 298.823 293.091 299.075 293.304 299.258C293.517 299.44 293.788 299.541 294.068 299.541H296.689C296.855 299.54 297.02 299.504 297.171 299.435C297.323 299.365 297.458 299.265 297.568 299.139C297.677 299.014 297.759 298.866 297.808 298.707C297.856 298.548 297.871 298.38 297.85 298.214Z" fill="#263238"/>
<path opacity="0.5" d="M292.948 267.514L292.542 264.96H287.533L287.939 267.514H292.948Z" fill="black"/>
<path d="M281.678 298.214L276.371 264.96H271.395L276.736 298.546C276.779 298.823 276.92 299.075 277.133 299.258C277.346 299.44 277.616 299.541 277.897 299.541H280.517C280.684 299.54 280.848 299.504 281 299.435C281.152 299.365 281.287 299.265 281.396 299.139C281.506 299.014 281.588 298.866 281.637 298.707C281.685 298.548 281.699 298.38 281.678 298.214Z" fill="#263238"/>
<path opacity="0.5" d="M281.678 298.214L276.371 264.96H271.395L276.736 298.546C276.779 298.823 276.92 299.075 277.133 299.258C277.346 299.44 277.616 299.541 277.897 299.541H280.517C280.684 299.54 280.848 299.504 281 299.435C281.152 299.365 281.287 299.265 281.396 299.139C281.506 299.014 281.588 298.866 281.637 298.707C281.685 298.548 281.699 298.38 281.678 298.214Z" fill="black"/>
<path opacity="0.5" d="M260.987 259.959H291.364C291.677 259.959 291.976 260.083 292.197 260.304C292.418 260.525 292.542 260.824 292.542 261.137V264.968H261.029V259.992L260.987 259.959Z" fill="black"/>
<path d="M120.895 295.005L127.537 282.814L103.778 261.991L101.92 295.005H120.895Z" fill="#363D4E"/>
<path opacity="0.1" d="M120.895 295.005L127.537 282.814L103.778 261.991L101.92 295.005H120.895Z" fill="black"/>
<path d="M202.779 156.09C216.106 146.968 227.268 147.905 230.975 150.567C234.682 153.229 222.906 173.447 222.906 173.447C218.502 172.168 214.425 169.955 210.952 166.96C207.479 163.965 204.692 160.258 202.779 156.09Z" fill="#363D4E"/>
<path opacity="0.2" d="M209.123 165.254C216.628 157.881 224.283 155.518 226.356 156.753C228.429 157.989 221.77 172.203 221.77 172.203C221.77 172.203 212.772 173.497 209.123 165.254Z" fill="black"/>
<path d="M86.9848 184.684L86.2301 184.302C88.3136 180.203 90.7645 176.3 93.5528 172.643L94.2245 173.157C91.4715 176.775 89.0485 180.633 86.9848 184.684Z" fill="#363D4E"/>
<path d="M83.0373 194.055L82.208 193.781C82.8382 191.932 83.5514 190.083 84.331 188.291L85.1105 188.631C84.3641 190.389 83.6592 192.214 83.0373 194.055Z" fill="#363D4E"/>
<path d="M238.099 217.068C238.099 258.242 207.1 291.613 162.351 291.613C117.602 291.613 81.3289 258.242 81.3289 217.068C81.3289 175.893 117.602 142.523 162.351 142.523C207.1 142.523 238.099 175.893 238.099 217.068Z" fill="#363D4E"/>
<path opacity="0.1" d="M151.554 283.718L148.311 290.502C150.655 290.883 153.035 291.16 155.451 291.331L151.554 283.718Z" fill="black"/>
<path d="M146.644 299.574L155.965 282.814L126.152 271.917L122.338 299.574H146.644Z" fill="#363D4E"/>
<path d="M190.066 299.574L181.989 282.814L210.375 271.917L212.258 299.574H190.066Z" fill="#363D4E"/>
<path opacity="0.2" d="M210.458 227.84C210.458 238.986 200.606 248.017 188.49 248.017C176.374 248.017 166.564 238.986 166.564 227.84C166.564 216.695 176.383 207.664 188.49 207.664C200.598 207.664 210.458 216.695 210.458 227.84Z" fill="black"/>
<path opacity="0.2" d="M181.209 234.442C183.266 234.442 184.933 231.338 184.933 227.509C184.933 223.68 183.266 220.576 181.209 220.576C179.153 220.576 177.486 223.68 177.486 227.509C177.486 231.338 179.153 234.442 181.209 234.442Z" fill="black"/>
<path opacity="0.4" d="M154.581 190.207C155.65 193.466 154.663 197.024 152.383 198.143C150.102 199.263 147.407 197.521 146.312 194.262C145.218 191.003 146.221 187.445 148.502 186.326C150.782 185.206 153.511 186.94 154.581 190.207Z" fill="black"/>
<path opacity="0.4" d="M212.299 190.356C211.47 193.615 212.49 197.132 214.547 198.201C216.604 199.271 218.926 197.497 219.738 194.229C220.551 190.962 219.548 187.454 217.491 186.384C215.434 185.314 213.129 187.089 212.299 190.356Z" fill="black"/>
<path opacity="0.2" d="M201.021 234.442C203.078 234.442 204.745 231.338 204.745 227.509C204.745 223.68 203.078 220.576 201.021 220.576C198.965 220.576 197.298 223.68 197.298 227.509C197.298 231.338 198.965 234.442 201.021 234.442Z" fill="black"/>
<path d="M138.666 155.41C124.228 143.451 111.3 142.523 106.838 144.695C102.376 146.868 113.978 170.312 113.978 170.312C113.978 170.312 129.818 169.383 138.666 155.41Z" fill="#363D4E"/>
<path opacity="0.2" d="M130.539 164.018C122.62 154.896 114.061 151.097 111.565 152.043C109.069 152.988 115.396 169.176 115.396 169.176C115.396 169.176 125.597 172.112 130.539 164.018Z" fill="black"/>
<path opacity="0.4" d="M167.824 149.008H180.023C180.023 149.008 177.37 146.089 168.363 145.201C163.263 144.787 158.13 145.066 153.104 146.031C153.104 146.031 163.155 145.807 167.824 149.008Z" fill="black"/>
</svg>
